<svg width="29" height="28" viewBox="0 0 29 28" fill="none" xmlns="http://www.w3.org/2000/svg">
<path d="M4.51034 17.1283L12.7789 26.0497C13.2159 26.5219 13.7351 26.8965 14.3067 27.1521C14.8783 27.4077 15.4911 27.5393 16.1099 27.5393C16.7287 27.5393 17.3415 27.4077 17.9131 27.1521C18.4847 26.8965 19.0038 26.5219 19.4409 26.0497C20.0234 25.4226 20.4432 24.642 20.6585 23.7856C20.8739 22.9292 20.8773 22.0269 20.6683 21.1687C20.4593 20.3105 20.0453 19.5262 19.4676 18.8941C18.8898 18.2621 18.1684 17.8042 17.3753 17.5661L6.11381 14.17C5.76408 14.0654 5.39205 14.0884 5.05575 14.2356C4.71946 14.3827 4.4378 14.6457 4.25472 14.9834C4.07164 15.3212 3.99743 15.7148 4.04367 16.1028C4.08991 16.4907 4.254 16.8513 4.51034 17.1283Z" fill="url(#paint0_linear_583_1165)"/>
<path d="M25.0306 18.2396L28.0509 6.72115C28.2109 6.11144 28.2517 5.47549 28.1711 4.84964C28.0905 4.22378 27.89 3.6203 27.581 3.07369C27.2721 2.52708 26.8608 2.04806 26.3706 1.664C25.8804 1.27994 25.321 0.998384 24.7242 0.835419C23.931 0.618305 23.096 0.617349 22.3023 0.832643C21.5087 1.04794 20.784 1.47197 20.2006 2.06252C19.6171 2.65307 19.1952 3.38953 18.9768 4.19856C18.7585 5.00759 18.7513 5.86097 18.9561 6.67371L21.8587 18.2206C21.9489 18.5791 22.1528 18.897 22.4384 19.1247C22.724 19.3524 23.0753 19.4771 23.4375 19.4792C23.7997 19.4814 24.1524 19.361 24.4406 19.1367C24.7288 18.9125 24.9363 18.597 25.0306 18.2396Z" fill="url(#paint1_linear_583_1165)"/>
<path d="M15.9114 0.0571786L3.7574 3.19945C2.46113 3.53331 1.35551 4.34718 0.682865 5.46269C0.010219 6.5782 -0.174588 7.90436 0.168946 9.15053C0.398344 9.9724 0.847751 10.7222 1.47247 11.3255C2.09719 11.9288 2.87544 12.3644 3.72983 12.5891C4.58422 12.8138 5.48497 12.8198 6.34249 12.6063C7.20001 12.3929 7.98441 11.9675 8.61768 11.3726L17.6072 2.91088C17.8855 2.64786 18.0655 2.30379 18.119 1.93228C18.1725 1.56077 18.0966 1.1827 17.903 0.856973C17.7095 0.53125 17.4092 0.276179 17.0489 0.131513C16.6887 -0.0131542 16.2887 -0.0392899 15.9114 0.0571786Z" fill="url(#paint2_linear_583_1165)"/>
<defs>
<linearGradient id="paint0_linear_583_1165" x1="19.86" y1="24.6852" x2="3.45086" y2="17.0952" gradientUnits="userSpaceOnUse">
<stop stop-color="#7441FF"/>
<stop offset="1" stop-color="#BD79FF"/>
</linearGradient>
<linearGradient id="paint1_linear_583_1165" x1="23.5409" y1="0.671877" x2="23.5409" y2="19.5869" gradientUnits="userSpaceOnUse">
<stop stop-color="#5939FF"/>
<stop offset="1" stop-color="#1012FF"/>
</linearGradient>
<linearGradient id="paint2_linear_583_1165" x1="1.35756" y1="10.0782" x2="1.46122" y2="1.45173" gradientUnits="userSpaceOnUse">
<stop stop-color="#5EB1FE"/>
<stop offset="1" stop-color="#3B6BF4"/>
</linearGradient>
</defs>
</svg>
