<svg width="64" height="64" viewBox="0 0 64 64" fill="none" xmlns="http://www.w3.org/2000/svg">
<circle cx="32" cy="32" r="32" fill="white"/>
<circle cx="32" cy="32" r="32" fill="url(#paint0_linear_2_229)" fill-opacity="0.15"/>
<path d="M40 21H36V30.5C36 30.6326 35.9473 30.7598 35.8536 30.8536C35.7598 30.9473 35.6326 31 35.5 31C35.3807 30.9997 35.2654 30.9568 35.175 30.879L32 28.159L28.825 30.879C28.7524 30.9411 28.6636 30.9811 28.569 30.9942C28.4744 31.0074 28.3781 30.9932 28.2913 30.9534C28.2045 30.9135 28.1309 30.8496 28.0793 30.7693C28.0277 30.6889 28.0002 30.5955 28 30.5V21H24C23.2044 21 22.4413 21.3161 21.8787 21.8787C21.3161 22.4413 21 23.2044 21 24V40C21 40.7956 21.3161 41.5587 21.8787 42.1213C22.4413 42.6839 23.2044 43 24 43H40C40.7956 43 41.5587 42.6839 42.1213 42.1213C42.6839 41.5587 43 40.7956 43 40V24C43 23.2044 42.6839 22.4413 42.1213 21.8787C41.5587 21.3161 40.7956 21 40 21V21Z" fill="#020202"/>
<defs>
<linearGradient id="paint0_linear_2_229" x1="0" y1="32" x2="64" y2="32" gradientUnits="userSpaceOnUse">
<stop stop-color="#FCC5E4"/>
<stop offset="0.15" stop-color="#FDA34B"/>
<stop offset="0.35" stop-color="#FF7882"/>
<stop offset="0.52" stop-color="#C8699E"/>
<stop offset="0.71" stop-color="#7046AA"/>
<stop offset="0.87" stop-color="#0C1DB8"/>
<stop offset="1" stop-color="#020F75"/>
</linearGradient>
</defs>
</svg>
