<svg width="207" height="45" viewBox="0 0 207 45" fill="none" xmlns="http://www.w3.org/2000/svg">
<path d="M53.076 29.528C48.684 29.528 46.452 25.964 46.452 22.4C46.452 18.836 48.684 15.308 53.076 15.308C55.344 15.308 57.036 16.244 58.116 17.612L63.264 14.228C60.996 11.24 57.396 9.368 53.076 9.368C45.624 9.368 40.26 14.948 40.26 22.4C40.26 29.888 45.624 35.468 53.076 35.468C57.396 35.468 60.996 33.596 63.264 30.572L58.116 27.188C57.036 28.592 55.344 29.528 53.076 29.528ZM74.5123 16.316C68.8243 16.316 64.7203 20.456 64.7203 25.892C64.7203 31.292 68.8243 35.468 74.5123 35.468C80.2363 35.468 84.3043 31.292 84.3043 25.892C84.3043 20.456 80.2363 16.316 74.5123 16.316ZM74.5123 29.78C72.1723 29.78 70.6243 28.016 70.6243 25.892C70.6243 23.768 72.1723 21.968 74.5123 21.968C76.8883 21.968 78.4363 23.768 78.4363 25.892C78.4363 28.016 76.8883 29.78 74.5123 29.78ZM87.1753 35H93.0073V16.748H87.1753V35ZM90.0913 14.732C91.7833 14.732 93.1513 13.328 93.1513 11.636C93.1513 9.944 91.7833 8.576 90.0913 8.576C88.3993 8.576 87.0313 9.944 87.0313 11.636C87.0313 13.328 88.3993 14.732 90.0913 14.732ZM107.82 16.316C105.444 16.316 103.86 17.252 102.816 18.44V16.748H96.9839V35H102.816V25.172C102.816 23.156 104.04 22.04 105.732 22.04C107.352 22.04 108.648 23.084 108.648 25.172V35H114.516V23.588C114.516 19.916 112.356 16.316 107.82 16.316ZM128.436 21.032C125.232 20.312 122.172 19.808 122.172 16.604C122.172 14.192 124.116 12.716 126.528 12.716C129.192 12.716 130.488 14.156 130.992 15.668L134.52 14.804C133.476 11.312 130.488 9.368 126.888 9.368C122.208 9.368 118.572 12.356 118.572 16.604C118.572 19.88 119.724 22.544 124.8 23.768C128.796 24.74 131.856 24.884 131.856 28.304C131.856 30.896 129.444 32.084 126.708 32.084C123.36 32.084 121.488 30.32 121.128 28.664L117.564 29.78C118.788 33.74 122.784 35.468 126.636 35.468C133.116 35.468 135.528 31.544 135.528 28.016C135.528 23.948 133.332 22.184 128.436 21.032ZM147.654 19.88V16.748H143.442V12.932H140.166V16.748H137.322V19.88H140.166V29.06C140.166 33.056 141.93 35.18 145.89 35.18C146.61 35.18 147.186 35.108 147.654 35V32.12C147.258 32.156 146.862 32.192 146.322 32.192C143.478 32.192 143.442 30.464 143.442 27.872V19.88H147.654ZM159.469 16.316C156.589 16.316 153.817 17.324 151.801 19.16L154.105 20.924C154.897 20.276 156.913 19.304 158.821 19.304C162.601 19.304 163.177 21.464 163.177 24.236C162.709 24.236 161.161 24.236 160.225 24.236C157.669 24.236 150.721 24.38 150.721 30.104C150.721 33.38 153.745 35.468 157.201 35.468C160.081 35.468 162.349 33.884 163.177 32.48V35H166.453V23.984C166.453 19.628 164.725 16.316 159.469 16.316ZM163.177 29.78C162.961 30.608 161.053 32.804 157.921 32.804C155.005 32.804 154.105 31.364 154.105 29.96C154.105 26.756 158.533 26.792 161.917 26.792C162.133 26.792 163.069 26.792 163.177 26.792V29.78ZM179.633 32.336C176.033 32.336 173.405 29.6 173.405 25.892C173.405 22.148 176.033 19.412 179.633 19.412C181.937 19.412 183.845 20.564 184.925 22.364L187.733 20.816C186.077 18.152 183.197 16.316 179.633 16.316C174.125 16.316 170.057 20.636 170.057 25.892C170.057 31.148 174.125 35.468 179.633 35.468C183.197 35.468 186.077 33.632 187.733 30.932L184.925 29.42C183.845 31.22 181.937 32.336 179.633 32.336ZM197.593 25.28L204.685 16.748H200.689L194.065 24.884V9.8H190.789V35H194.065V26.252L201.517 35H205.801L197.593 25.28Z" fill="white"/>
<path d="M4.63635 25.4149L13.1361 34.4856C13.5854 34.9657 14.1191 35.3465 14.7067 35.6064C15.2943 35.8663 15.9241 36.0001 16.5603 36.0001C17.1964 36.0001 17.8263 35.8663 18.4139 35.6064C19.0015 35.3465 19.5352 34.9657 19.9844 34.4856V34.4856C20.5832 33.848 21.0148 33.0543 21.2361 32.1836C21.4575 31.3129 21.461 30.3955 21.2462 29.5229C21.0314 28.6503 20.6058 27.853 20.0119 27.2103C19.4179 26.5677 18.6764 26.1021 17.8611 25.8601L6.28466 22.4072C5.92515 22.3008 5.54272 22.3242 5.19702 22.4738C4.85132 22.6234 4.56178 22.8908 4.37358 23.2342C4.18538 23.5776 4.1091 23.9778 4.15663 24.3722C4.20416 24.7667 4.37284 25.1333 4.63635 25.4149V25.4149Z" fill="white"/>
<path d="M25.7303 26.5444L28.8351 14.8333C28.9995 14.2134 29.0415 13.5668 28.9587 12.9305C28.8758 12.2942 28.6697 11.6806 28.3521 11.1249C28.0345 10.5691 27.6117 10.0821 27.1078 9.69158C26.6039 9.3011 26.0288 9.01483 25.4154 8.84914V8.84914C24.6 8.6284 23.7417 8.62742 22.9258 8.84632C22.1099 9.06521 21.365 9.49634 20.7652 10.0968C20.1654 10.6972 19.7317 11.446 19.5073 12.2685C19.2828 13.0911 19.2755 13.9587 19.4859 14.7851L22.4697 26.5251C22.5625 26.8896 22.772 27.2129 23.0656 27.4444C23.3592 27.6758 23.7204 27.8026 24.0927 27.8048C24.465 27.807 24.8276 27.6845 25.1239 27.4565C25.4201 27.2285 25.6334 26.9078 25.7303 26.5444V26.5444Z" fill="white"/>
<path d="M16.3564 8.05813L3.86248 11.253C2.52995 11.5924 1.39342 12.4199 0.701961 13.5541C0.0105048 14.6882 -0.17947 16.0366 0.173671 17.3036C0.409484 18.1392 0.871458 18.9016 1.51365 19.5149C2.15583 20.1283 2.95585 20.5712 3.83414 20.7997C4.71242 21.0282 5.63836 21.0342 6.51985 20.8172C7.40135 20.6002 8.20769 20.1677 8.85867 19.5628L18.0996 10.9596C18.3857 10.6922 18.5707 10.3423 18.6257 9.9646C18.6807 9.58688 18.6026 9.20248 18.4037 8.87131C18.2047 8.54014 17.896 8.2808 17.5257 8.13371C17.1554 7.98663 16.7443 7.96005 16.3564 8.05813Z" fill="white"/>
</svg>
