<svg width="32" height="32" viewBox="0 0 32 32" fill="none" xmlns="http://www.w3.org/2000/svg">
<path d="M28.954 23.5292L18.6327 4.88525C18.0947 3.91392 17.1107 3.33325 16 3.33325C14.8894 3.33325 13.9054 3.91392 13.3674 4.88525L3.04604 23.5292C2.52404 24.4726 2.53871 25.5893 3.08671 26.5179C3.63337 27.4459 4.60271 27.9999 5.67937 27.9999H26.3214C27.3974 27.9999 28.3667 27.4459 28.914 26.5179C29.4607 25.5899 29.476 24.4726 28.954 23.5292ZM15 11.6666C15 11.1139 15.448 10.6666 16 10.6666C16.552 10.6666 17 11.1139 17 11.6666V18.3333C17 18.8859 16.552 19.3333 16 19.3333C15.448 19.3333 15 18.8859 15 18.3333V11.6666ZM16 23.9999C15.2634 23.9999 14.6667 23.4033 14.6667 22.6666C14.6667 21.9299 15.2634 21.3333 16 21.3333C16.7367 21.3333 17.3334 21.9299 17.3334 22.6666C17.3334 23.4033 16.7367 23.9999 16 23.9999Z" fill="white"/>
<path d="M28.954 23.5292L18.6327 4.88525C18.0947 3.91392 17.1107 3.33325 16 3.33325C14.8894 3.33325 13.9054 3.91392 13.3674 4.88525L3.04604 23.5292C2.52404 24.4726 2.53871 25.5893 3.08671 26.5179C3.63337 27.4459 4.60271 27.9999 5.67937 27.9999H26.3214C27.3974 27.9999 28.3667 27.4459 28.914 26.5179C29.4607 25.5899 29.476 24.4726 28.954 23.5292ZM15 11.6666C15 11.1139 15.448 10.6666 16 10.6666C16.552 10.6666 17 11.1139 17 11.6666V18.3333C17 18.8859 16.552 19.3333 16 19.3333C15.448 19.3333 15 18.8859 15 18.3333V11.6666ZM16 23.9999C15.2634 23.9999 14.6667 23.4033 14.6667 22.6666C14.6667 21.9299 15.2634 21.3333 16 21.3333C16.7367 21.3333 17.3334 21.9299 17.3334 22.6666C17.3334 23.4033 16.7367 23.9999 16 23.9999Z" fill="url(#paint0_linear_2_209)" fill-opacity="0.15"/>
<defs>
<linearGradient id="paint0_linear_2_209" x1="2.66486" y1="15.6666" x2="29.3351" y2="15.6666" gradientUnits="userSpaceOnUse">
<stop stop-color="#FCC5E4"/>
<stop offset="0.15" stop-color="#FDA34B"/>
<stop offset="0.35" stop-color="#FF7882"/>
<stop offset="0.52" stop-color="#C8699E"/>
<stop offset="0.71" stop-color="#7046AA"/>
<stop offset="0.87" stop-color="#0C1DB8"/>
<stop offset="1" stop-color="#020F75"/>
</linearGradient>
</defs>
</svg>
