<svg width="187" height="28" viewBox="0 0 187 28" fill="none" xmlns="http://www.w3.org/2000/svg">
<path d="M4.51021 17.1283L12.7788 26.0498C13.2158 26.522 13.735 26.8966 14.3066 27.1522C14.8782 27.4078 15.4909 27.5394 16.1098 27.5394C16.7286 27.5394 17.3414 27.4078 17.913 27.1522C18.4845 26.8966 19.0037 26.522 19.4408 26.0498V26.0498C20.0232 25.4227 20.4431 24.6421 20.6584 23.7857C20.8738 22.9293 20.8771 22.027 20.6682 21.1688C20.4592 20.3105 20.0452 19.5263 19.4674 18.8942C18.8897 18.2621 18.1683 17.8042 17.3752 17.5662L6.11368 14.1701C5.76396 14.0655 5.39193 14.0885 5.05563 14.2356C4.71933 14.3828 4.43768 14.6457 4.2546 14.9835C4.07152 15.3213 3.99731 15.7148 4.04355 16.1028C4.08979 16.4908 4.25388 16.8514 4.51021 17.1283V17.1283Z" fill="url(#paint0_linear_2_299)"/>
<path d="M25.0304 18.2394L28.0506 6.72097C28.2106 6.11126 28.2515 5.47531 28.1709 4.84945C28.0902 4.2236 27.8897 3.62012 27.5808 3.07351C27.2718 2.5269 26.8605 2.04787 26.3703 1.66382C25.8802 1.27976 25.3207 0.998201 24.724 0.835235V0.835235C23.9308 0.618122 23.0958 0.617166 22.3021 0.83246C21.5084 1.04776 20.7838 1.47179 20.2003 2.06234C19.6169 2.65289 19.1949 3.38934 18.9766 4.19838C18.7583 5.00741 18.7511 5.86078 18.9558 6.67353L21.8585 18.2204C21.9487 18.579 22.1525 18.8969 22.4381 19.1245C22.7237 19.3522 23.0751 19.4769 23.4373 19.479C23.7995 19.4812 24.1522 19.3608 24.4404 19.1365C24.7286 18.9123 24.936 18.5968 25.0304 18.2394V18.2394Z" fill="url(#paint1_linear_2_299)"/>
<path d="M15.9114 0.0571786L3.7574 3.19945C2.46113 3.53331 1.35551 4.34718 0.682865 5.46269C0.010219 6.5782 -0.174588 7.90436 0.168946 9.15053C0.398344 9.9724 0.847751 10.7222 1.47247 11.3255C2.09719 11.9288 2.87544 12.3644 3.72983 12.5891C4.58422 12.8138 5.48497 12.8198 6.34249 12.6063C7.20001 12.3929 7.98441 11.9675 8.61768 11.3726L17.6072 2.91088C17.8855 2.64786 18.0655 2.30379 18.119 1.93228C18.1725 1.56077 18.0966 1.1827 17.903 0.856973C17.7095 0.53125 17.4092 0.276179 17.0489 0.131513C16.6887 -0.0131542 16.2887 -0.0392899 15.9114 0.0571786Z" fill="url(#paint2_linear_2_299)"/>
<path d="M50.2209 20.6237C46.2874 20.6237 44.2885 17.4318 44.2885 14.2399C44.2885 11.048 46.2874 7.88839 50.2209 7.88839C52.2521 7.88839 53.7674 8.72666 54.7346 9.95183L59.3451 6.92116C57.3139 4.24513 54.0898 2.56859 50.2209 2.56859C43.5469 2.56859 38.743 7.56598 38.743 14.2399C38.743 20.9461 43.5469 25.9435 50.2209 25.9435C54.0898 25.9435 57.3139 24.2669 59.3451 21.5587L54.7346 18.528C53.7674 19.7854 52.2521 20.6237 50.2209 20.6237Z" fill="#292568"/>
<path d="M69.419 8.79115C64.3249 8.79115 60.6494 12.4989 60.6494 17.3673C60.6494 22.2035 64.3249 25.9435 69.419 25.9435C74.5454 25.9435 78.1886 22.2035 78.1886 17.3673C78.1886 12.4989 74.5454 8.79115 69.419 8.79115ZM69.419 20.8494C67.3233 20.8494 65.937 19.2695 65.937 17.3673C65.937 15.4651 67.3233 13.853 69.419 13.853C71.5469 13.853 72.9333 15.4651 72.9333 17.3673C72.9333 19.2695 71.5469 20.8494 69.419 20.8494Z" fill="#292568"/>
<path d="M80.7599 25.5243H85.9829V9.17804H80.7599V25.5243ZM83.3714 7.37253C84.8867 7.37253 86.1119 6.11512 86.1119 4.59979C86.1119 3.08445 84.8867 1.85928 83.3714 1.85928C81.8561 1.85928 80.6309 3.08445 80.6309 4.59979C80.6309 6.11512 81.8561 7.37253 83.3714 7.37253Z" fill="#292568"/>
<path d="M99.2489 8.79115C97.121 8.79115 95.7024 9.62942 94.7674 10.6934V9.17804H89.5443V25.5243H94.7674V16.7225C94.7674 14.917 95.8636 13.9175 97.379 13.9175C98.8298 13.9175 99.9905 14.8525 99.9905 16.7225V25.5243H105.246V15.3039C105.246 12.0153 103.311 8.79115 99.2489 8.79115Z" fill="#292568"/>
<path d="M117.713 13.0147C114.843 12.3699 112.103 11.9185 112.103 9.04908C112.103 6.88892 113.844 5.56702 116.004 5.56702C118.39 5.56702 119.551 6.85667 120.002 8.21081L123.162 7.43702C122.227 4.30962 119.551 2.56859 116.326 2.56859C112.135 2.56859 108.879 5.24461 108.879 9.04908C108.879 11.983 109.91 14.3689 114.456 15.4651C118.035 16.3356 120.776 16.4646 120.776 19.5275C120.776 21.8488 118.616 22.9128 116.165 22.9128C113.167 22.9128 111.49 21.333 111.168 19.8499L107.976 20.8494C109.072 24.3959 112.651 25.9435 116.101 25.9435C121.904 25.9435 124.064 22.4292 124.064 19.2695C124.064 15.6263 122.098 14.0465 117.713 13.0147Z" fill="#292568"/>
<path d="M134.924 11.983V9.17804H131.152V5.76047H128.218V9.17804H125.671V11.983H128.218V20.2045C128.218 23.7833 129.798 25.6856 133.344 25.6856C133.989 25.6856 134.505 25.6211 134.924 25.5243V22.945C134.569 22.9773 134.215 23.0095 133.731 23.0095C131.184 23.0095 131.152 21.462 131.152 19.1406V11.983H134.924Z" fill="#292568"/>
<path d="M145.505 8.79115C142.926 8.79115 140.443 9.6939 138.638 11.3382L140.701 12.918C141.411 12.3377 143.216 11.4672 144.925 11.4672C148.31 11.4672 148.826 13.4016 148.826 15.8842C148.407 15.8842 147.021 15.8842 146.182 15.8842C143.893 15.8842 137.671 16.0132 137.671 21.1395C137.671 24.0735 140.379 25.9435 143.474 25.9435C146.053 25.9435 148.085 24.5249 148.826 23.2675V25.5243H151.76V15.6585C151.76 11.7573 150.213 8.79115 145.505 8.79115ZM148.826 20.8494C148.633 21.5909 146.924 23.5576 144.119 23.5576C141.507 23.5576 140.701 22.268 140.701 21.0106C140.701 18.1411 144.667 18.1733 147.698 18.1733C147.891 18.1733 148.729 18.1733 148.826 18.1733V20.8494Z" fill="#292568"/>
<path d="M163.564 23.1385C160.34 23.1385 157.986 20.6882 157.986 17.3673C157.986 14.0142 160.34 11.5639 163.564 11.5639C165.627 11.5639 167.336 12.5956 168.303 14.2077L170.818 12.8213C169.335 10.4354 166.756 8.79115 163.564 8.79115C158.631 8.79115 154.988 12.6601 154.988 17.3673C154.988 22.0745 158.631 25.9435 163.564 25.9435C166.756 25.9435 169.335 24.2992 170.818 21.8811L168.303 20.527C167.336 22.139 165.627 23.1385 163.564 23.1385Z" fill="#292568"/>
<path d="M179.649 16.8192L186.001 9.17804H182.422L176.489 16.4646V2.95548H173.555V25.5243H176.489V17.6897L183.163 25.5243H187L179.649 16.8192Z" fill="#292568"/>
<defs>
<linearGradient id="paint0_linear_2_299" x1="19.8598" y1="24.6852" x2="3.45074" y2="17.0952" gradientUnits="userSpaceOnUse">
<stop stop-color="#7441FF"/>
<stop offset="1" stop-color="#BD79FF"/>
</linearGradient>
<linearGradient id="paint1_linear_2_299" x1="23.5406" y1="0.671694" x2="23.5406" y2="19.5867" gradientUnits="userSpaceOnUse">
<stop stop-color="#5939FF"/>
<stop offset="1" stop-color="#1012FF"/>
</linearGradient>
<linearGradient id="paint2_linear_2_299" x1="1.35756" y1="10.0782" x2="1.46122" y2="1.45173" gradientUnits="userSpaceOnUse">
<stop stop-color="#5EB1FE"/>
<stop offset="1" stop-color="#3B6BF4"/>
</linearGradient>
</defs>
</svg>
