<svg width="32" height="32" viewBox="0 0 32 32" fill="none" xmlns="http://www.w3.org/2000/svg">
<path d="M8.66666 4.66675C7.60579 4.66675 6.58838 5.08818 5.83823 5.83832C5.08808 6.58847 4.66666 7.60588 4.66666 8.66675C4.66666 9.72761 5.08808 10.745 5.83823 11.4952C6.58838 12.2453 7.60579 12.6667 8.66666 12.6667C9.72752 12.6667 10.7449 12.2453 11.4951 11.4952C12.2452 10.745 12.6667 9.72761 12.6667 8.66675C12.6667 7.60588 12.2452 6.58847 11.4951 5.83832C10.7449 5.08818 9.72752 4.66675 8.66666 4.66675ZM23.3333 4.66675C22.2725 4.66675 21.255 5.08818 20.5049 5.83832C19.7548 6.58847 19.3333 7.60588 19.3333 8.66675C19.3333 9.72761 19.7548 10.745 20.5049 11.4952C21.255 12.2453 22.2725 12.6667 23.3333 12.6667C24.3942 12.6667 25.4116 12.2453 26.1618 11.4952C26.9119 10.745 27.3333 9.72761 27.3333 8.66675C27.3333 7.60588 26.9119 6.58847 26.1618 5.83832C25.4116 5.08818 24.3942 4.66675 23.3333 4.66675ZM16 10.3334C13.76 10.3334 11.9111 12.0417 11.6888 14.224C11.674 14.3695 11.6667 14.5174 11.6667 14.6667C11.6667 16.9067 13.375 18.7556 15.5573 18.9779C15.7028 18.9928 15.8507 19.0001 16 19.0001C18.3893 19.0001 20.3333 17.0561 20.3333 14.6667C20.3333 12.2774 18.3893 10.3334 16 10.3334ZM16 13.0001C16.9193 13.0001 17.6667 13.7474 17.6667 14.6667C17.6667 15.5861 16.9193 16.3334 16 16.3334C15.0807 16.3334 14.3333 15.5861 14.3333 14.6667C14.3333 14.5518 14.3449 14.4392 14.3672 14.3308C14.5228 13.5719 15.1956 13.0001 16 13.0001ZM4.99999 14.0001C3.71332 14.0001 2.66666 15.0467 2.66666 16.3334V18.0001C2.66666 20.1981 5.1988 21.9249 8.46614 21.9936C8.91414 20.2749 10.476 19.0001 12.3333 19.0001H12.3555C11.1208 17.9594 10.3333 16.4041 10.3333 14.6667C10.3333 14.4407 10.3503 14.2194 10.3763 14.0001H4.99999ZM21.6237 14.0001C21.6497 14.2194 21.6667 14.4407 21.6667 14.6667C21.6667 16.4041 20.8792 17.9594 19.6445 19.0001H19.6667C21.524 19.0001 23.0858 20.2749 23.5338 21.9936C26.8012 21.9249 29.3333 20.1981 29.3333 18.0001V16.3334C29.3333 15.0467 28.2867 14.0001 27 14.0001H21.6237ZM12.3333 20.3334C10.8627 20.3334 9.66666 21.5294 9.66666 23.0001V24.6667C9.66666 27.0967 12.4487 29.0001 16 29.0001C19.5513 29.0001 22.3333 27.0967 22.3333 24.6667V23.0001C22.3333 21.5294 21.1373 20.3334 19.6667 20.3334H12.3333ZM12.3333 23.0001H19.6667V24.6667C19.6667 25.3301 18.2047 26.3334 16 26.3334C13.7953 26.3334 12.3333 25.3301 12.3333 24.6667V23.0001Z" fill="white"/>
<path d="M8.66666 4.66675C7.60579 4.66675 6.58838 5.08818 5.83823 5.83832C5.08808 6.58847 4.66666 7.60588 4.66666 8.66675C4.66666 9.72761 5.08808 10.745 5.83823 11.4952C6.58838 12.2453 7.60579 12.6667 8.66666 12.6667C9.72752 12.6667 10.7449 12.2453 11.4951 11.4952C12.2452 10.745 12.6667 9.72761 12.6667 8.66675C12.6667 7.60588 12.2452 6.58847 11.4951 5.83832C10.7449 5.08818 9.72752 4.66675 8.66666 4.66675ZM23.3333 4.66675C22.2725 4.66675 21.255 5.08818 20.5049 5.83832C19.7548 6.58847 19.3333 7.60588 19.3333 8.66675C19.3333 9.72761 19.7548 10.745 20.5049 11.4952C21.255 12.2453 22.2725 12.6667 23.3333 12.6667C24.3942 12.6667 25.4116 12.2453 26.1618 11.4952C26.9119 10.745 27.3333 9.72761 27.3333 8.66675C27.3333 7.60588 26.9119 6.58847 26.1618 5.83832C25.4116 5.08818 24.3942 4.66675 23.3333 4.66675ZM16 10.3334C13.76 10.3334 11.9111 12.0417 11.6888 14.224C11.674 14.3695 11.6667 14.5174 11.6667 14.6667C11.6667 16.9067 13.375 18.7556 15.5573 18.9779C15.7028 18.9928 15.8507 19.0001 16 19.0001C18.3893 19.0001 20.3333 17.0561 20.3333 14.6667C20.3333 12.2774 18.3893 10.3334 16 10.3334ZM16 13.0001C16.9193 13.0001 17.6667 13.7474 17.6667 14.6667C17.6667 15.5861 16.9193 16.3334 16 16.3334C15.0807 16.3334 14.3333 15.5861 14.3333 14.6667C14.3333 14.5518 14.3449 14.4392 14.3672 14.3308C14.5228 13.5719 15.1956 13.0001 16 13.0001ZM4.99999 14.0001C3.71332 14.0001 2.66666 15.0467 2.66666 16.3334V18.0001C2.66666 20.1981 5.1988 21.9249 8.46614 21.9936C8.91414 20.2749 10.476 19.0001 12.3333 19.0001H12.3555C11.1208 17.9594 10.3333 16.4041 10.3333 14.6667C10.3333 14.4407 10.3503 14.2194 10.3763 14.0001H4.99999ZM21.6237 14.0001C21.6497 14.2194 21.6667 14.4407 21.6667 14.6667C21.6667 16.4041 20.8792 17.9594 19.6445 19.0001H19.6667C21.524 19.0001 23.0858 20.2749 23.5338 21.9936C26.8012 21.9249 29.3333 20.1981 29.3333 18.0001V16.3334C29.3333 15.0467 28.2867 14.0001 27 14.0001H21.6237ZM12.3333 20.3334C10.8627 20.3334 9.66666 21.5294 9.66666 23.0001V24.6667C9.66666 27.0967 12.4487 29.0001 16 29.0001C19.5513 29.0001 22.3333 27.0967 22.3333 24.6667V23.0001C22.3333 21.5294 21.1373 20.3334 19.6667 20.3334H12.3333ZM12.3333 23.0001H19.6667V24.6667C19.6667 25.3301 18.2047 26.3334 16 26.3334C13.7953 26.3334 12.3333 25.3301 12.3333 24.6667V23.0001Z" fill="url(#paint0_linear_2_201)" fill-opacity="0.15"/>
<defs>
<linearGradient id="paint0_linear_2_201" x1="2.66666" y1="16.8334" x2="29.3333" y2="16.8334" gradientUnits="userSpaceOnUse">
<stop stop-color="#FCC5E4"/>
<stop offset="0.15" stop-color="#FDA34B"/>
<stop offset="0.35" stop-color="#FF7882"/>
<stop offset="0.52" stop-color="#C8699E"/>
<stop offset="0.71" stop-color="#7046AA"/>
<stop offset="0.87" stop-color="#0C1DB8"/>
<stop offset="1" stop-color="#020F75"/>
</linearGradient>
</defs>
</svg>
