<svg width="32" height="32" viewBox="0 0 32 32" fill="none" xmlns="http://www.w3.org/2000/svg">
<path d="M5.66666 3.33325C4.01266 3.33325 2.66666 4.67925 2.66666 6.33325V20.3333C2.66666 21.9873 4.01266 23.3333 5.66666 23.3333H11.3333V26.6666H9C8.86749 26.6647 8.73592 26.6892 8.61295 26.7386C8.48999 26.788 8.37807 26.8614 8.2837 26.9544C8.18933 27.0475 8.11439 27.1583 8.06324 27.2806C8.01209 27.4029 7.98576 27.5341 7.98576 27.6666C7.98576 27.7991 8.01209 27.9303 8.06324 28.0526C8.11439 28.1748 8.18933 28.2857 8.2837 28.3787C8.37807 28.4718 8.48999 28.5451 8.61295 28.5946C8.73592 28.644 8.86749 28.6685 9 28.6666H12.1693C12.2766 28.6842 12.3861 28.6842 12.4935 28.6666H19.5026C19.61 28.6842 19.7195 28.6842 19.8268 28.6666H23C23.1325 28.6685 23.2641 28.644 23.387 28.5946C23.51 28.5451 23.6219 28.4718 23.7163 28.3787C23.8107 28.2857 23.8856 28.1748 23.9368 28.0526C23.9879 27.9303 24.0142 27.7991 24.0142 27.6666C24.0142 27.5341 23.9879 27.4029 23.9368 27.2806C23.8856 27.1583 23.8107 27.0475 23.7163 26.9544C23.6219 26.8614 23.51 26.788 23.387 26.7386C23.2641 26.6892 23.1325 26.6647 23 26.6666H20.6667V23.3333H26.3333C27.9873 23.3333 29.3333 21.9873 29.3333 20.3333V6.33325C29.3333 4.67925 27.9873 3.33325 26.3333 3.33325H5.66666ZM13.3333 23.3333H18.6667V26.6666H13.3333V23.3333Z" fill="white"/>
<path d="M5.66666 3.33325C4.01266 3.33325 2.66666 4.67925 2.66666 6.33325V20.3333C2.66666 21.9873 4.01266 23.3333 5.66666 23.3333H11.3333V26.6666H9C8.86749 26.6647 8.73592 26.6892 8.61295 26.7386C8.48999 26.788 8.37807 26.8614 8.2837 26.9544C8.18933 27.0475 8.11439 27.1583 8.06324 27.2806C8.01209 27.4029 7.98576 27.5341 7.98576 27.6666C7.98576 27.7991 8.01209 27.9303 8.06324 28.0526C8.11439 28.1748 8.18933 28.2857 8.2837 28.3787C8.37807 28.4718 8.48999 28.5451 8.61295 28.5946C8.73592 28.644 8.86749 28.6685 9 28.6666H12.1693C12.2766 28.6842 12.3861 28.6842 12.4935 28.6666H19.5026C19.61 28.6842 19.7195 28.6842 19.8268 28.6666H23C23.1325 28.6685 23.2641 28.644 23.387 28.5946C23.51 28.5451 23.6219 28.4718 23.7163 28.3787C23.8107 28.2857 23.8856 28.1748 23.9368 28.0526C23.9879 27.9303 24.0142 27.7991 24.0142 27.6666C24.0142 27.5341 23.9879 27.4029 23.9368 27.2806C23.8856 27.1583 23.8107 27.0475 23.7163 26.9544C23.6219 26.8614 23.51 26.788 23.387 26.7386C23.2641 26.6892 23.1325 26.6647 23 26.6666H20.6667V23.3333H26.3333C27.9873 23.3333 29.3333 21.9873 29.3333 20.3333V6.33325C29.3333 4.67925 27.9873 3.33325 26.3333 3.33325H5.66666ZM13.3333 23.3333H18.6667V26.6666H13.3333V23.3333Z" fill="url(#paint0_linear_2_205)" fill-opacity="0.15"/>
<defs>
<linearGradient id="paint0_linear_2_205" x1="2.66666" y1="16.0065" x2="29.3333" y2="16.0065" gradientUnits="userSpaceOnUse">
<stop stop-color="#FCC5E4"/>
<stop offset="0.15" stop-color="#FDA34B"/>
<stop offset="0.35" stop-color="#FF7882"/>
<stop offset="0.52" stop-color="#C8699E"/>
<stop offset="0.71" stop-color="#7046AA"/>
<stop offset="0.87" stop-color="#0C1DB8"/>
<stop offset="1" stop-color="#020F75"/>
</linearGradient>
</defs>
</svg>
