<svg width="8" height="4" viewBox="0 0 8 4" fill="none" xmlns="http://www.w3.org/2000/svg">
<path d="M6.91686 0.146198L4.0002 2.47953L1.08353 0.146198C1.01515 0.0914802 0.936671 0.050766 0.852561 0.0263796C0.768452 0.00199322 0.680362 -0.00558779 0.593323 0.0040695C0.506284 0.0137268 0.421999 0.0404331 0.34528 0.0826639C0.268562 0.124895 0.200913 0.181823 0.146195 0.250198C0.0914779 0.318573 0.0507637 0.397055 0.0263773 0.481165C0.00199092 0.565275 -0.00559004 0.653364 0.00406725 0.740403C0.0137245 0.827443 0.040431 0.911728 0.0826617 0.988446C0.124892 1.06516 0.18182 1.13281 0.250195 1.18753L3.58353 3.8542C3.70177 3.94887 3.84873 4.00045 4.0002 4.00045C4.15167 4.00045 4.29862 3.94887 4.41686 3.8542L7.7502 1.18753C7.88829 1.07702 7.97682 0.916187 7.99632 0.740403C8.01583 0.564619 7.9647 0.388287 7.8542 0.250198C7.79948 0.181823 7.73183 0.124895 7.65511 0.0826639C7.57839 0.0404331 7.49411 0.0137268 7.40707 0.0040695C7.23128 -0.0154343 7.05495 0.0356908 6.91686 0.146198Z" fill="#020202"/>
</svg>
