<svg width="24" height="24" viewBox="0 0 24 24" fill="none" xmlns="http://www.w3.org/2000/svg">
<path d="M23.9783 11.996C23.9783 18.5906 18.6326 23.9363 12.038 23.9363C5.44357 23.9363 0.0976562 18.5906 0.0976562 11.996C0.0976562 5.40146 5.44357 0.0556641 12.038 0.0556641C18.6326 0.0556641 23.9783 5.40146 23.9783 11.996Z" fill="url(#paint0_linear_583_1411)"/>
<path d="M17.6422 6.07666H6.33594V8.80621H10.6243V12.8182H13.3538V8.80621H17.6422V6.07666Z" fill="white"/>
<path d="M12.0154 13.2456C8.46793 13.2456 5.59187 12.6842 5.59187 11.9915C5.59187 11.299 8.46781 10.7374 12.0154 10.7374C15.5629 10.7374 18.4388 11.299 18.4388 11.9915C18.4388 12.6842 15.5629 13.2456 12.0154 13.2456ZM19.2279 12.2006C19.2279 11.3074 15.9988 10.5835 12.0154 10.5835C8.03211 10.5835 4.80273 11.3074 4.80273 12.2006C4.80273 12.9871 7.30673 13.6424 10.6248 13.7876V19.5468H13.3541V13.7898C16.6978 13.6492 19.2279 12.9911 19.2279 12.2006Z" fill="white"/>
<defs>
<linearGradient id="paint0_linear_583_1411" x1="0.0976562" y1="11.996" x2="23.9783" y2="11.996" gradientUnits="userSpaceOnUse">
<stop stop-color="#BC83DF"/>
<stop offset="1" stop-color="#3B6BF4"/>
</linearGradient>
</defs>
</svg>
