<svg width="64" height="64" viewBox="0 0 64 64" fill="none" xmlns="http://www.w3.org/2000/svg">
<circle cx="32" cy="32" r="32" fill="white"/>
<circle cx="32" cy="32" r="32" fill="url(#paint0_linear_2_239)" fill-opacity="0.15"/>
<g clip-path="url(#clip0_2_239)">
<path d="M41 34.211V29.789C41.321 29.6511 41.6096 29.4473 41.8471 29.191C42.0846 28.9347 42.2657 28.6314 42.3787 28.3007C42.4917 27.9701 42.5342 27.6194 42.5033 27.2714C42.4725 26.9233 42.369 26.5855 42.1996 26.2799C42.0302 25.9743 41.7986 25.7076 41.5197 25.497C41.2409 25.2864 40.921 25.1366 40.5807 25.0573C40.2404 24.978 39.8872 24.9709 39.544 25.0364C39.2008 25.102 38.8751 25.2388 38.588 25.438L34.464 22.861C34.4846 22.7417 34.4967 22.621 34.5 22.5C34.5 21.837 34.2366 21.2011 33.7678 20.7322C33.2989 20.2634 32.663 20 32 20C31.3369 20 30.7011 20.2634 30.2322 20.7322C29.7634 21.2011 29.5 21.837 29.5 22.5C29.5033 22.621 29.5153 22.7417 29.536 22.861L25.412 25.438C25.1249 25.2388 24.7992 25.102 24.456 25.0364C24.1128 24.9709 23.7596 24.978 23.4193 25.0573C23.079 25.1366 22.7591 25.2864 22.4802 25.497C22.2014 25.7076 21.9698 25.9743 21.8004 26.2799C21.631 26.5855 21.5275 26.9233 21.4966 27.2714C21.4658 27.6194 21.5083 27.9701 21.6213 28.3007C21.7343 28.6314 21.9154 28.9347 22.1529 29.191C22.3904 29.4473 22.6789 29.6511 23 29.789V34.211C22.6789 34.3489 22.3904 34.5527 22.1529 34.809C21.9154 35.0653 21.7343 35.3686 21.6213 35.6993C21.5083 36.0299 21.4658 36.3806 21.4966 36.7286C21.5275 37.0767 21.631 37.4145 21.8004 37.7201C21.9698 38.0257 22.2014 38.2924 22.4802 38.503C22.7591 38.7136 23.079 38.8634 23.4193 38.9427C23.7596 39.022 24.1128 39.0291 24.456 38.9636C24.7992 38.898 25.1249 38.7612 25.412 38.562L29.536 41.139C29.4744 41.4978 29.492 41.8658 29.5874 42.2171C29.6829 42.5685 29.8539 42.8948 30.0886 43.1731C30.3233 43.4515 30.6159 43.6752 30.9461 43.8287C31.2762 43.9822 31.6359 44.0617 32 44.0617C32.3641 44.0617 32.7238 43.9822 33.0539 43.8287C33.3841 43.6752 33.6767 43.4515 33.9114 43.1731C34.1461 42.8948 34.3171 42.5685 34.4125 42.2171C34.508 41.8658 34.5256 41.4978 34.464 41.139L38.588 38.562C38.8751 38.7612 39.2008 38.898 39.544 38.9636C39.8872 39.0291 40.2404 39.022 40.5807 38.9427C40.921 38.8634 41.2409 38.7136 41.5197 38.503C41.7986 38.2924 42.0302 38.0257 42.1996 37.7201C42.369 37.4145 42.4725 37.0767 42.5033 36.7286C42.5342 36.3806 42.4917 36.0299 42.3787 35.6993C42.2657 35.3686 42.0846 35.0653 41.8471 34.809C41.6096 34.5527 41.321 34.3489 41 34.211ZM38.5 34.511L34.474 32.246C34.4868 32.1645 34.4955 32.0824 34.5 32C34.4958 31.918 34.4874 31.8362 34.475 31.755L38.5 29.49C38.6543 29.6092 38.8222 29.7099 39 29.79V34.212C38.8222 34.2915 38.6544 34.3915 38.5 34.51V34.511ZM37.524 27.746L33.5 30.01C33.3456 29.8908 33.1778 29.7901 33 29.71V24.789C33.1444 24.7265 33.2824 24.6502 33.412 24.561L37.536 27.14C37.5153 27.259 37.5033 27.3793 37.5 27.5C37.5042 27.582 37.5125 27.6638 37.525 27.745L37.524 27.746ZM31 24.789V29.711C30.8222 29.7911 30.6543 29.8918 30.5 30.011L26.475 27.745C26.4874 27.6638 26.4958 27.582 26.5 27.5C26.4967 27.3793 26.4846 27.259 26.464 27.14L30.588 24.561C30.7176 24.6502 30.8556 24.7265 31 24.789V24.789ZM25.5 29.49L29.526 31.755C29.5132 31.8362 29.5045 31.9179 29.5 32C29.5042 32.082 29.5126 32.1638 29.525 32.245L25.5 34.51C25.3456 34.3908 25.1778 34.2901 25 34.21V29.789C25.1778 29.7092 25.3456 29.6089 25.5 29.49V29.49ZM26.476 36.255L30.5 33.99C30.6543 34.1092 30.8222 34.2099 31 34.29V39.212C30.8556 39.2745 30.7176 39.3508 30.588 39.44L26.464 36.86C26.4846 36.741 26.4967 36.6207 26.5 36.5C26.4958 36.418 26.4874 36.3362 26.475 36.255H26.476ZM33 39.211V34.289C33.1778 34.2089 33.3456 34.1082 33.5 33.989L37.526 36.254C37.5135 36.3352 37.5052 36.417 37.501 36.499C37.5043 36.6197 37.5163 36.74 37.537 36.859L33.413 39.438C33.283 39.3491 33.1447 39.2731 33 39.211V39.211Z" fill="#020202"/>
</g>
<defs>
<linearGradient id="paint0_linear_2_239" x1="0" y1="32" x2="64" y2="32" gradientUnits="userSpaceOnUse">
<stop stop-color="#FCC5E4"/>
<stop offset="0.15" stop-color="#FDA34B"/>
<stop offset="0.35" stop-color="#FF7882"/>
<stop offset="0.52" stop-color="#C8699E"/>
<stop offset="0.71" stop-color="#7046AA"/>
<stop offset="0.87" stop-color="#0C1DB8"/>
<stop offset="1" stop-color="#020F75"/>
</linearGradient>
<clipPath id="clip0_2_239">
<rect width="24" height="24" fill="white" transform="translate(20 20)"/>
</clipPath>
</defs>
</svg>
