<svg width="64" height="64" viewBox="0 0 64 64" fill="none" xmlns="http://www.w3.org/2000/svg">
<circle cx="32" cy="32" r="32" fill="white"/>
<circle cx="32" cy="32" r="32" fill="url(#paint0_linear_2_216)" fill-opacity="0.15"/>
<path d="M29 21H23C21.8954 21 21 21.8954 21 23V29C21 30.1046 21.8954 31 23 31H29C30.1046 31 31 30.1046 31 29V23C31 21.8954 30.1046 21 29 21Z" fill="#020202"/>
<path d="M43.428 24.6181L39.381 20.5721C39.0143 20.2068 38.5177 20.0017 38 20.0017C37.4824 20.0017 36.9858 20.2068 36.619 20.5721L32.572 24.6181C32.2066 24.9852 32.0015 25.4821 32.0015 26.0001C32.0015 26.5181 32.2066 27.015 32.572 27.3821L36.619 31.4291C36.9858 31.7944 37.4824 31.9995 38 31.9995C38.5177 31.9995 39.0143 31.7944 39.381 31.4291L43.428 27.3831C43.7937 27.0159 43.9991 26.5188 43.9991 26.0006C43.9991 25.4824 43.7937 24.9853 43.428 24.6181V24.6181Z" fill="#020202"/>
<path d="M41 33H35C33.8954 33 33 33.8954 33 35V41C33 42.1046 33.8954 43 35 43H41C42.1046 43 43 42.1046 43 41V35C43 33.8954 42.1046 33 41 33Z" fill="#020202"/>
<path d="M29 33H23C21.8954 33 21 33.8954 21 35V41C21 42.1046 21.8954 43 23 43H29C30.1046 43 31 42.1046 31 41V35C31 33.8954 30.1046 33 29 33Z" fill="#020202"/>
<defs>
<linearGradient id="paint0_linear_2_216" x1="0" y1="32" x2="64" y2="32" gradientUnits="userSpaceOnUse">
<stop stop-color="#FCC5E4"/>
<stop offset="0.15" stop-color="#FDA34B"/>
<stop offset="0.35" stop-color="#FF7882"/>
<stop offset="0.52" stop-color="#C8699E"/>
<stop offset="0.71" stop-color="#7046AA"/>
<stop offset="0.87" stop-color="#0C1DB8"/>
<stop offset="1" stop-color="#020F75"/>
</linearGradient>
</defs>
</svg>
