<svg width="1440" height="1024" viewBox="0 0 1440 1024" fill="none" xmlns="http://www.w3.org/2000/svg">
<g opacity="0.1">
<g filter="url(#filter0_f_640_62)">
<path d="M521.768 367.904C552.502 371.343 550.4 334.088 573.669 324.904C656.332 292.28 693.03 541.756 610.183 594.647C531.802 644.686 423.358 453.639 423.358 453.639C423.358 453.639 400.716 401.971 414.612 377.088C427.153 354.633 446.581 352.256 468.563 355.585C485.929 358.215 504.342 365.954 521.768 367.904Z" fill="#7F30FF"/>
</g>
<g filter="url(#filter1_f_640_62)">
<path d="M475.122 478.077C520.364 483.145 517.267 428.28 551.518 414.759C673.195 366.724 727.233 734.122 605.286 812.002C489.914 885.683 330.269 604.324 330.269 604.324C330.269 604.324 296.936 528.232 317.389 491.59C335.847 458.522 364.446 455.025 396.803 459.929C422.367 463.804 449.471 475.204 475.122 478.077Z" fill="#00B0FF"/>
</g>
<g filter="url(#filter2_f_640_62)">
<ellipse rx="150.07" ry="182.881" transform="matrix(0.985383 -0.170353 0.113513 0.993536 397.459 716.281)" fill="#0038FF"/>
</g>
<g filter="url(#filter3_f_640_62)">
<path d="M149.206 678.86C139.599 742.667 137.655 790.36 168.008 843.426C227.185 946.886 393.397 917.253 428.567 798.381C456.365 704.426 393.174 643.699 343.219 564.831C321.177 530.031 312.978 499.274 279.51 483.486C204.618 448.157 163.823 581.776 149.206 678.86Z" fill="#FF4880"/>
</g>
<g filter="url(#filter4_f_640_62)">
<ellipse rx="119.652" ry="145.772" transform="matrix(0.985383 -0.170353 0.113513 0.993536 134.45 786.469)" fill="#FF8000"/>
</g>
<g filter="url(#filter5_f_640_62)">
<path d="M584.065 440.222C614.799 443.661 612.697 406.406 635.966 397.222C718.629 364.598 755.327 614.075 672.48 666.965C594.099 717.004 485.655 525.957 485.655 525.957C485.655 525.957 463.013 474.289 476.909 449.407C489.449 426.951 508.878 424.575 530.86 427.903C548.226 430.533 566.639 438.273 584.065 440.222Z" fill="#7F30FF"/>
</g>
<g filter="url(#filter6_f_640_62)">
<path d="M537.421 550.396C582.662 555.464 579.565 500.599 613.817 487.078C735.494 439.042 789.532 806.441 667.585 884.321C552.213 958.002 392.568 676.643 392.568 676.643C392.568 676.643 359.234 600.551 379.688 563.909C398.146 530.841 426.745 527.344 459.102 532.248C484.666 536.123 511.77 547.523 537.421 550.396Z" fill="#00B0FF"/>
</g>
<g filter="url(#filter7_f_640_62)">
<ellipse rx="150.07" ry="182.881" transform="matrix(0.985383 -0.170353 0.113513 0.993536 459.76 788.599)" fill="#0038FF"/>
</g>
<g filter="url(#filter8_f_640_62)">
<path d="M211.507 751.179C201.9 814.986 199.956 862.679 230.309 915.745C289.486 1019.2 455.698 989.572 490.868 870.7C518.665 776.745 455.475 716.017 405.52 637.15C383.478 602.35 375.279 571.592 341.811 555.805C266.918 520.476 226.124 654.095 211.507 751.179Z" fill="#FF4880"/>
</g>
<g filter="url(#filter9_f_640_62)">
<ellipse rx="119.652" ry="145.772" transform="matrix(0.985383 -0.170353 0.113513 0.993536 196.749 858.787)" fill="#FF8000"/>
</g>
<g filter="url(#filter10_f_640_62)">
<ellipse rx="170.404" ry="207.894" transform="matrix(0.985383 0.170353 -0.113513 0.993536 1248.49 519.014)" fill="url(#paint0_linear_640_62)"/>
</g>
<g filter="url(#filter11_f_640_62)">
<path d="M1029.18 520.432C1040.93 472.19 1005.33 439.116 1019.78 391.993C1045.12 309.304 1133.65 506.314 1109.4 589.503C1099.24 624.363 1087.49 644.789 1061.82 664.079C1015.22 699.087 941.153 703.725 923.443 640.156C905.244 574.832 1013.05 586.593 1029.18 520.432Z" fill="#4ACFFF"/>
</g>
<g filter="url(#filter12_f_640_62)">
<ellipse rx="67.5565" ry="82.4196" transform="matrix(0.985383 0.170353 -0.113513 0.993536 1352.32 603.436)" fill="#FF3333"/>
</g>
<g filter="url(#filter13_f_640_62)">
<ellipse rx="170.404" ry="207.894" transform="matrix(0.985383 0.170353 -0.113513 0.993536 1186.19 591.333)" fill="url(#paint1_linear_640_62)"/>
</g>
<g filter="url(#filter14_f_640_62)">
<path d="M966.876 592.75C978.633 544.508 943.032 511.435 957.477 464.311C982.823 381.622 1071.35 578.633 1047.1 661.821C1036.94 696.681 1025.19 717.108 999.52 736.397C952.924 771.406 878.852 776.043 861.143 712.474C842.944 647.15 950.751 658.911 966.876 592.75Z" fill="#4ACFFF"/>
</g>
<g filter="url(#filter15_f_640_62)">
<ellipse rx="67.5565" ry="82.4196" transform="matrix(0.985383 0.170353 -0.113513 0.993536 1290.02 675.754)" fill="#FF3333"/>
</g>
<g filter="url(#filter16_f_640_62)">
<ellipse cx="539.855" cy="561.771" rx="209.423" ry="257.613" fill="#7FDEFF"/>
</g>
<g filter="url(#filter17_f_640_62)">
<path d="M793.214 606.751C652.014 505.134 575.544 244.942 693.984 106.136C800.61 -18.824 976.463 25.925 1067.72 168.113C1162.11 315.186 1156.61 572.729 1015.61 643.631C934.487 684.419 868.854 661.187 793.214 606.751Z" fill="url(#paint2_radial_640_62)"/>
</g>
<g filter="url(#filter18_f_640_62)">
<ellipse cx="539.855" cy="627.212" rx="209.423" ry="257.613" fill="#7FDEFF"/>
</g>
<g filter="url(#filter19_f_640_62)">
<path d="M793.214 672.575C652.014 570.958 575.544 310.767 693.984 171.961C800.61 47.0002 976.462 91.7492 1067.72 233.937C1162.11 381.011 1156.61 638.553 1015.61 709.455C934.486 750.243 868.854 727.011 793.214 672.575Z" fill="url(#paint3_radial_640_62)"/>
</g>
</g>
<defs>
<filter id="filter0_f_640_62" x="160.1" y="71.9741" width="746.836" height="781.028" filterUnits="userSpaceOnUse" color-interpolation-filters="sRGB">
<feFlood flood-opacity="0" result="BackgroundImageFix"/>
<feBlend mode="normal" in="SourceGraphic" in2="BackgroundImageFix" result="shape"/>
<feGaussianBlur stdDeviation="125" result="effect1_foregroundBlur_640_62"/>
</filter>
<filter id="filter1_f_640_62" x="60.75" y="160.446" width="863.348" height="913.858" filterUnits="userSpaceOnUse" color-interpolation-filters="sRGB">
<feFlood flood-opacity="0" result="BackgroundImageFix"/>
<feBlend mode="normal" in="SourceGraphic" in2="BackgroundImageFix" result="shape"/>
<feGaussianBlur stdDeviation="125" result="effect1_foregroundBlur_640_62"/>
</filter>
<filter id="filter2_f_640_62" x="-1.88477" y="282.769" width="798.689" height="867.024" filterUnits="userSpaceOnUse" color-interpolation-filters="sRGB">
<feFlood flood-opacity="0" result="BackgroundImageFix"/>
<feBlend mode="normal" in="SourceGraphic" in2="BackgroundImageFix" result="shape"/>
<feGaussianBlur stdDeviation="125" result="effect1_foregroundBlur_640_62"/>
</filter>
<filter id="filter3_f_640_62" x="-107.076" y="227.685" width="792.443" height="928.919" filterUnits="userSpaceOnUse" color-interpolation-filters="sRGB">
<feFlood flood-opacity="0" result="BackgroundImageFix"/>
<feBlend mode="normal" in="SourceGraphic" in2="BackgroundImageFix" result="shape"/>
<feGaussianBlur stdDeviation="125" result="effect1_foregroundBlur_640_62"/>
</filter>
<filter id="filter4_f_640_62" x="-234.623" y="390.193" width="738.146" height="792.551" filterUnits="userSpaceOnUse" color-interpolation-filters="sRGB">
<feFlood flood-opacity="0" result="BackgroundImageFix"/>
<feBlend mode="normal" in="SourceGraphic" in2="BackgroundImageFix" result="shape"/>
<feGaussianBlur stdDeviation="125" result="effect1_foregroundBlur_640_62"/>
</filter>
<filter id="filter5_f_640_62" x="222.396" y="144.292" width="746.836" height="781.028" filterUnits="userSpaceOnUse" color-interpolation-filters="sRGB">
<feFlood flood-opacity="0" result="BackgroundImageFix"/>
<feBlend mode="normal" in="SourceGraphic" in2="BackgroundImageFix" result="shape"/>
<feGaussianBlur stdDeviation="125" result="effect1_foregroundBlur_640_62"/>
</filter>
<filter id="filter6_f_640_62" x="123.049" y="232.765" width="863.348" height="913.858" filterUnits="userSpaceOnUse" color-interpolation-filters="sRGB">
<feFlood flood-opacity="0" result="BackgroundImageFix"/>
<feBlend mode="normal" in="SourceGraphic" in2="BackgroundImageFix" result="shape"/>
<feGaussianBlur stdDeviation="125" result="effect1_foregroundBlur_640_62"/>
</filter>
<filter id="filter7_f_640_62" x="60.416" y="355.087" width="798.689" height="867.024" filterUnits="userSpaceOnUse" color-interpolation-filters="sRGB">
<feFlood flood-opacity="0" result="BackgroundImageFix"/>
<feBlend mode="normal" in="SourceGraphic" in2="BackgroundImageFix" result="shape"/>
<feGaussianBlur stdDeviation="125" result="effect1_foregroundBlur_640_62"/>
</filter>
<filter id="filter8_f_640_62" x="-44.7754" y="300.003" width="792.443" height="928.92" filterUnits="userSpaceOnUse" color-interpolation-filters="sRGB">
<feFlood flood-opacity="0" result="BackgroundImageFix"/>
<feBlend mode="normal" in="SourceGraphic" in2="BackgroundImageFix" result="shape"/>
<feGaussianBlur stdDeviation="125" result="effect1_foregroundBlur_640_62"/>
</filter>
<filter id="filter9_f_640_62" x="-172.324" y="462.512" width="738.146" height="792.551" filterUnits="userSpaceOnUse" color-interpolation-filters="sRGB">
<feFlood flood-opacity="0" result="BackgroundImageFix"/>
<feBlend mode="normal" in="SourceGraphic" in2="BackgroundImageFix" result="shape"/>
<feGaussianBlur stdDeviation="125" result="effect1_foregroundBlur_640_62"/>
</filter>
<filter id="filter10_f_640_62" x="878.904" y="110.408" width="739.168" height="817.213" filterUnits="userSpaceOnUse" color-interpolation-filters="sRGB">
<feFlood flood-opacity="0" result="BackgroundImageFix"/>
<feBlend mode="normal" in="SourceGraphic" in2="BackgroundImageFix" result="shape"/>
<feGaussianBlur stdDeviation="100" result="effect1_foregroundBlur_640_62"/>
</filter>
<filter id="filter11_f_640_62" x="721.381" y="172.134" width="592.184" height="717.308" filterUnits="userSpaceOnUse" color-interpolation-filters="sRGB">
<feFlood flood-opacity="0" result="BackgroundImageFix"/>
<feBlend mode="normal" in="SourceGraphic" in2="BackgroundImageFix" result="shape"/>
<feGaussianBlur stdDeviation="100" result="effect1_foregroundBlur_640_62"/>
</filter>
<filter id="filter12_f_640_62" x="1085.09" y="320.734" width="534.463" height="565.404" filterUnits="userSpaceOnUse" color-interpolation-filters="sRGB">
<feFlood flood-opacity="0" result="BackgroundImageFix"/>
<feBlend mode="normal" in="SourceGraphic" in2="BackgroundImageFix" result="shape"/>
<feGaussianBlur stdDeviation="100" result="effect1_foregroundBlur_640_62"/>
</filter>
<filter id="filter13_f_640_62" x="816.605" y="182.727" width="739.168" height="817.213" filterUnits="userSpaceOnUse" color-interpolation-filters="sRGB">
<feFlood flood-opacity="0" result="BackgroundImageFix"/>
<feBlend mode="normal" in="SourceGraphic" in2="BackgroundImageFix" result="shape"/>
<feGaussianBlur stdDeviation="100" result="effect1_foregroundBlur_640_62"/>
</filter>
<filter id="filter14_f_640_62" x="659.08" y="244.453" width="592.184" height="717.308" filterUnits="userSpaceOnUse" color-interpolation-filters="sRGB">
<feFlood flood-opacity="0" result="BackgroundImageFix"/>
<feBlend mode="normal" in="SourceGraphic" in2="BackgroundImageFix" result="shape"/>
<feGaussianBlur stdDeviation="100" result="effect1_foregroundBlur_640_62"/>
</filter>
<filter id="filter15_f_640_62" x="1022.79" y="393.052" width="534.463" height="565.404" filterUnits="userSpaceOnUse" color-interpolation-filters="sRGB">
<feFlood flood-opacity="0" result="BackgroundImageFix"/>
<feBlend mode="normal" in="SourceGraphic" in2="BackgroundImageFix" result="shape"/>
<feGaussianBlur stdDeviation="100" result="effect1_foregroundBlur_640_62"/>
</filter>
<filter id="filter16_f_640_62" x="130.432" y="104.158" width="818.848" height="915.226" filterUnits="userSpaceOnUse" color-interpolation-filters="sRGB">
<feFlood flood-opacity="0" result="BackgroundImageFix"/>
<feBlend mode="normal" in="SourceGraphic" in2="BackgroundImageFix" result="shape"/>
<feGaussianBlur stdDeviation="100" result="effect1_foregroundBlur_640_62"/>
</filter>
<filter id="filter17_f_640_62" x="235.648" y="-366.984" width="1295.62" height="1431.32" filterUnits="userSpaceOnUse" color-interpolation-filters="sRGB">
<feFlood flood-opacity="0" result="BackgroundImageFix"/>
<feBlend mode="normal" in="SourceGraphic" in2="BackgroundImageFix" result="shape"/>
<feGaussianBlur stdDeviation="200" result="effect1_foregroundBlur_640_62"/>
</filter>
<filter id="filter18_f_640_62" x="130.432" y="169.599" width="818.848" height="915.226" filterUnits="userSpaceOnUse" color-interpolation-filters="sRGB">
<feFlood flood-opacity="0" result="BackgroundImageFix"/>
<feBlend mode="normal" in="SourceGraphic" in2="BackgroundImageFix" result="shape"/>
<feGaussianBlur stdDeviation="100" result="effect1_foregroundBlur_640_62"/>
</filter>
<filter id="filter19_f_640_62" x="235.648" y="-301.16" width="1295.62" height="1431.32" filterUnits="userSpaceOnUse" color-interpolation-filters="sRGB">
<feFlood flood-opacity="0" result="BackgroundImageFix"/>
<feBlend mode="normal" in="SourceGraphic" in2="BackgroundImageFix" result="shape"/>
<feGaussianBlur stdDeviation="200" result="effect1_foregroundBlur_640_62"/>
</filter>
<linearGradient id="paint0_linear_640_62" x1="170.404" y1="0" x2="170.404" y2="415.789" gradientUnits="userSpaceOnUse">
<stop stop-color="#FFD8FC"/>
<stop offset="1" stop-color="#FF41F2"/>
</linearGradient>
<linearGradient id="paint1_linear_640_62" x1="170.404" y1="0" x2="170.404" y2="415.789" gradientUnits="userSpaceOnUse">
<stop stop-color="#FFD8FC"/>
<stop offset="1" stop-color="#FF41F2"/>
</linearGradient>
<radialGradient id="paint2_radial_640_62" cx="0" cy="0" r="1" gradientUnits="userSpaceOnUse" gradientTransform="translate(883.232 0.101974) rotate(90) scale(693.897 573.137)">
<stop offset="0.336458" stop-color="#FFA800"/>
<stop offset="0.445833" stop-color="#FF0000"/>
<stop offset="1" stop-color="#FF47D6"/>
</radialGradient>
<radialGradient id="paint3_radial_640_62" cx="0" cy="0" r="1" gradientUnits="userSpaceOnUse" gradientTransform="translate(883.232 65.9262) rotate(90) scale(693.897 573.137)">
<stop offset="0.336458" stop-color="#9179D7"/>
<stop offset="0.445833" stop-color="#60AFFC"/>
<stop offset="1" stop-color="#FF47D6"/>
</radialGradient>
</defs>
</svg>
