<svg width="24" height="24" viewBox="0 0 24 24" fill="none" xmlns="http://www.w3.org/2000/svg">
<g clip-path="url(#clip0_583_1384)">
<path d="M0 4.49414H24V19.4951L0 19.4953V4.49414Z" fill="white"/>
<path d="M0 4.49433H6.85484C5.6609 5.33902 4.69436 6.45978 4.02037 7.76752C3.34619 9.07508 2.99693 10.5208 2.99693 11.9908C2.99693 13.4608 3.34619 14.9147 4.02037 16.2223C4.69455 17.53 5.6609 18.6508 6.85484 19.4953H0V4.49414V4.49433ZM11.996 4.49433C10.0386 4.49433 8.1624 5.28212 6.77361 6.68719C5.39287 8.09226 4.61313 10.001 4.61313 11.9908C4.61313 13.9806 5.39287 15.8893 6.77361 17.2944C8.15435 18.6994 10.0386 19.4872 11.996 19.4872C13.9532 19.4872 15.8294 18.6994 17.2183 17.2944C18.5991 15.8893 19.3788 13.9808 19.3788 11.9908C19.3788 10.001 18.5991 8.09226 17.2183 6.68719C15.8376 5.28212 13.9534 4.49433 11.996 4.49433ZM24 4.49433H17.1452C18.3391 5.33902 19.3056 6.45978 19.9796 7.76752C20.6538 9.07508 21.0029 10.5208 21.0029 11.999C21.0029 13.469 20.6536 14.9228 19.9796 16.2305C19.3055 17.5381 18.3391 18.6588 17.1452 19.5035H24V4.49433Z" fill="url(#paint0_linear_583_1384)"/>
<path d="M14.205 9.24171C13.872 8.29146 12.9624 8.17766 11.8983 8.34836L11.5654 7L10.7532 7.20308L11.0782 8.51887C10.867 8.57577 10.6477 8.63248 10.4366 8.68938L10.1116 7.36554L9.29951 7.56862L9.63248 8.91679C9.46197 8.96545 9.28322 9.0143 9.12076 9.05492V9.04687L8 9.33118L8.21936 10.2084C8.21936 10.2084 8.81231 10.046 8.80407 10.0623C9.12881 9.98103 9.28322 10.1435 9.35641 10.3059L9.73804 11.8492C9.77061 11.8411 9.79494 11.8329 9.82732 11.8329L9.73804 11.8572L10.2659 14.0177C10.2739 14.1232 10.2578 14.31 10.0304 14.3669C10.0467 14.375 9.43745 14.5131 9.43745 14.5131L9.51868 15.5364L10.5745 15.2683C10.7695 15.2197 10.9644 15.171 11.1512 15.1302L11.4841 16.4947L12.2963 16.2916L11.9633 14.9352C12.1907 14.8865 12.4018 14.8296 12.6129 14.781L12.9459 16.1291L13.758 15.926L13.4251 14.5616C14.7652 14.1393 15.6342 13.5464 15.4311 12.2143C15.2687 11.1422 14.6677 10.8012 13.8473 10.8092C14.2615 10.4437 14.4487 9.94022 14.205 9.24171ZM13.7908 12.4498C14.0425 13.4732 12.2882 13.7899 11.7441 13.928L11.2973 12.1168C11.8497 11.9869 13.5308 11.394 13.7908 12.4498ZM12.7919 9.99694C13.0193 10.9229 11.5573 11.1826 11.1025 11.2964L10.6963 9.65592C11.1512 9.53407 12.5482 9.02235 12.7919 9.99694Z" fill="white"/>
</g>
<defs>
<linearGradient id="paint0_linear_583_1384" x1="0" y1="11.9988" x2="24" y2="11.9988" gradientUnits="userSpaceOnUse">
<stop stop-color="#BC83DF"/>
<stop offset="1" stop-color="#3B6BF4"/>
</linearGradient>
<clipPath id="clip0_583_1384">
<rect width="24" height="24" fill="white"/>
</clipPath>
</defs>
</svg>
