<svg width="46" height="45" viewBox="0 0 46 45" fill="none" xmlns="http://www.w3.org/2000/svg">
<path d="M7.20912 28.3506L20.4322 42.6178C21.1311 43.3729 21.9614 43.972 22.8754 44.3808C23.7895 44.7895 24.7694 45 25.7591 45C26.7487 45 27.7287 44.7895 28.6427 44.3808C29.5568 43.972 30.3871 43.3729 31.086 42.6178C32.0175 41.615 32.6889 40.3666 33.0333 38.9971C33.3777 37.6275 33.383 36.1846 33.0489 34.8121C32.7147 33.4396 32.0526 32.1855 31.1287 31.1746C30.2047 30.1638 29.0511 29.4316 27.7827 29.0509L9.77338 23.6199C9.2141 23.4525 8.61916 23.4894 8.08135 23.7247C7.54354 23.96 7.09312 24.3805 6.80034 24.9206C6.50756 25.4608 6.38888 26.0902 6.46283 26.7107C6.53678 27.3311 6.79919 27.9078 7.20912 28.3506Z" fill="url(#paint0_linear_640_83)"/>
<path d="M40.026 30.1274L44.856 11.7072C45.1118 10.7321 45.1772 9.71512 45.0483 8.71426C44.9193 7.7134 44.5987 6.74832 44.1046 5.87418C43.6106 5.00004 42.9528 4.23399 42.1689 3.6198C41.385 3.00562 40.4903 2.55536 39.5361 2.29474C38.2676 1.94753 36.9322 1.946 35.663 2.2903C34.3937 2.6346 33.2349 3.31272 32.3018 4.25712C31.3687 5.20152 30.694 6.37926 30.3448 7.67306C29.9957 8.96686 29.9842 10.3316 30.3116 11.6313L34.9535 30.0971C35.0978 30.6704 35.4238 31.1788 35.8805 31.5429C36.3372 31.907 36.8991 32.1064 37.4783 32.1099C38.0576 32.1133 38.6216 31.9207 39.0825 31.5621C39.5434 31.2035 39.8751 30.699 40.026 30.1274Z" fill="url(#paint1_linear_640_83)"/>
<path d="M25.4455 1.05042L6.00883 6.07553C3.93582 6.60944 2.16773 7.91097 1.09203 9.6949C0.0163422 11.4788 -0.2792 13.5996 0.270178 15.5925C0.637031 16.9068 1.35572 18.106 2.35477 19.0707C3.35381 20.0354 4.5984 20.7321 5.96473 21.0915C7.33107 21.4508 8.77154 21.4603 10.1429 21.119C11.5142 20.7777 12.7686 20.0974 13.7814 19.1459L28.1573 5.61404C28.6025 5.19344 28.8902 4.6432 28.9758 4.04908C29.0614 3.45497 28.9399 2.85035 28.6304 2.32945C28.3209 1.80856 27.8407 1.40065 27.2646 1.1693C26.6885 0.937948 26.0489 0.896152 25.4455 1.05042Z" fill="url(#paint2_linear_640_83)"/>
<defs>
<linearGradient id="paint0_linear_640_83" x1="31.7562" y1="40.4356" x2="5.51481" y2="28.2977" gradientUnits="userSpaceOnUse">
<stop stop-color="#7441FF"/>
<stop offset="1" stop-color="#BD79FF"/>
</linearGradient>
<linearGradient id="paint1_linear_640_83" x1="37.6436" y1="2.03321" x2="37.6436" y2="32.282" gradientUnits="userSpaceOnUse">
<stop stop-color="#5939FF"/>
<stop offset="1" stop-color="#1012FF"/>
</linearGradient>
<linearGradient id="paint2_linear_640_83" x1="2.17101" y1="17.076" x2="2.33678" y2="3.28058" gradientUnits="userSpaceOnUse">
<stop stop-color="#5EB1FE"/>
<stop offset="1" stop-color="#3B6BF4"/>
</linearGradient>
</defs>
</svg>
