<svg width="18" height="18" viewBox="0 0 18 18" fill="none" xmlns="http://www.w3.org/2000/svg">
<path d="M8.25 1.5V3.04395C4.88239 3.41919 2.25 6.28473 2.25 9.75C2.25 13.469 5.28096 16.5 9 16.5C12.719 16.5 15.75 13.469 15.75 9.75C15.75 6.28473 13.1176 3.41919 9.75 3.04395V1.5H8.25ZM9 4.5C11.9084 4.5 14.25 6.84162 14.25 9.75C14.25 12.6584 11.9084 15 9 15C6.09162 15 3.75 12.6584 3.75 9.75C3.75 6.84162 6.09162 4.5 9 4.5ZM8.25 6V10.0605L10.7197 12.5303L11.7803 11.4697L9.75 9.43945V6H8.25Z" fill="#0C092A"/>
</svg>
