<svg width="24" height="24" viewBox="0 0 24 24" fill="none" xmlns="http://www.w3.org/2000/svg">
<path d="M12 24C18.6274 24 24 18.6274 24 12C24 5.37258 18.6274 0 12 0C5.37258 0 0 5.37258 0 12C0 18.6274 5.37258 24 12 24Z" fill="url(#paint0_linear_925_202)"/>
<path fill-rule="evenodd" clip-rule="evenodd" d="M18.1704 7.21997H7.62038C7.5611 7.22014 7.50352 7.23982 7.45653 7.27596C7.40954 7.31211 7.37575 7.36271 7.36038 7.41997L6.77038 9.23997C6.75845 9.27943 6.75507 9.32099 6.76047 9.36186C6.76586 9.40274 6.77991 9.44199 6.80168 9.477C6.82344 9.51202 6.85243 9.54199 6.88669 9.56492C6.92095 9.58785 6.95971 9.60321 7.00038 9.60997H15.8804C15.9405 9.61006 15.9998 9.62442 16.0533 9.65189C16.1068 9.67935 16.1531 9.71912 16.1882 9.76793C16.2234 9.81675 16.2464 9.87321 16.2555 9.93267C16.2646 9.99213 16.2594 10.0529 16.2404 10.11L15.1004 13.79C15.0433 13.9649 14.9322 14.1172 14.783 14.225C14.6339 14.3329 14.4544 14.3906 14.2704 14.39H5.27038C5.2098 14.3896 5.15073 14.4089 5.10205 14.445C5.05336 14.481 5.01769 14.5319 5.00038 14.59L4.41038 16.41C4.39621 16.4517 4.39209 16.4962 4.39835 16.5398C4.40461 16.5834 4.42108 16.6249 4.44641 16.661C4.47175 16.6971 4.50524 16.7266 4.54416 16.7473C4.58307 16.768 4.62632 16.7792 4.67038 16.78H15.1504C15.877 16.8198 16.5944 16.602 17.1761 16.1647C17.7579 15.7275 18.1666 15.099 18.3304 14.39V14.39L19.8604 9.60997C19.8604 9.60997 20.5304 7.21997 18.1704 7.21997Z" fill="white"/>
<path fill-rule="evenodd" clip-rule="evenodd" d="M10.4197 11.1999L9.82974 12.9999C9.81632 13.0474 9.78733 13.089 9.74743 13.118C9.70753 13.147 9.65904 13.1618 9.60974 13.1599H4.27974C4.24346 13.1601 4.20766 13.1516 4.17527 13.1353C4.14288 13.119 4.11481 13.0952 4.09336 13.066C4.0719 13.0367 4.05767 13.0028 4.05183 12.967C4.04599 12.9312 4.0487 12.8945 4.05974 12.8599L4.65974 11.0999C4.67705 11.0549 4.70703 11.0158 4.74607 10.9874C4.78511 10.959 4.83154 10.9425 4.87974 10.9399H10.1997C10.2313 10.9425 10.262 10.9512 10.2902 10.9657C10.3184 10.9801 10.3434 11 10.3639 11.0242C10.3843 11.0483 10.3998 11.0763 10.4094 11.1065C10.419 11.1366 10.4225 11.1684 10.4197 11.1999V11.1999Z" fill="white"/>
<defs>
<linearGradient id="paint0_linear_925_202" x1="0" y1="12" x2="24" y2="12" gradientUnits="userSpaceOnUse">
<stop stop-color="#BC83DF"/>
<stop offset="0.14" stop-color="#B481E0"/>
<stop offset="0.36" stop-color="#9D7DE4"/>
<stop offset="0.63" stop-color="#7876EA"/>
<stop offset="0.94" stop-color="#456DF2"/>
<stop offset="1" stop-color="#3B6BF4"/>
</linearGradient>
</defs>
</svg>
