<svg width="24" height="24" viewBox="0 0 24 24" fill="none" xmlns="http://www.w3.org/2000/svg">
<path d="M12 24C18.6274 24 24 18.6274 24 12C24 5.37258 18.6274 0 12 0C5.37258 0 0 5.37258 0 12C0 18.6274 5.37258 24 12 24Z" fill="url(#paint0_linear_924_164)"/>
<path d="M20.9298 14.3701C20.9298 15.1001 20.9298 15.8301 20.9298 16.5601C20.944 16.7078 20.9135 16.8565 20.8421 16.9867C20.7708 17.1168 20.662 17.2226 20.5298 17.2901C19.1964 18.0434 17.8631 18.8034 16.5298 19.5701C16.4052 19.6526 16.2592 19.6967 16.1098 19.6967C15.9604 19.6967 15.8143 19.6526 15.6897 19.5701C14.3564 18.8101 13.0498 18.0568 11.7698 17.3101C11.6355 17.2462 11.5236 17.1433 11.4487 17.0148C11.3738 16.8864 11.3393 16.7384 11.3498 16.5901C11.3498 16.0901 11.3498 15.5901 11.3498 15.1001C11.3385 15.0165 11.345 14.9315 11.3688 14.8506C11.3926 14.7697 11.4331 14.6947 11.4879 14.6305C11.5426 14.5664 11.6102 14.5145 11.6864 14.4782C11.7625 14.4419 11.8454 14.4221 11.9298 14.4201C12.2798 14.4201 12.5198 14.6801 12.5398 15.1101C12.5598 15.5401 12.3797 16.0401 12.6097 16.3701C12.8397 16.7001 13.3098 16.8201 13.6698 17.0301C14.3998 17.4501 15.1298 17.8701 15.8498 18.3001C15.9221 18.3537 16.0097 18.3826 16.0998 18.3826C16.1898 18.3826 16.2774 18.3537 16.3498 18.3001L19.4398 16.5201C19.5199 16.4828 19.5863 16.4212 19.6294 16.344C19.6725 16.2667 19.6901 16.1779 19.6798 16.0901C19.6798 14.9301 19.6798 13.7801 19.6798 12.6301C19.6896 12.5462 19.6727 12.4614 19.6313 12.3877C19.59 12.3141 19.5265 12.2554 19.4498 12.2201C18.4498 11.6401 17.3898 11.0401 16.3698 10.4401C16.2934 10.3825 16.2004 10.3513 16.1047 10.3513C16.0091 10.3513 15.9161 10.3825 15.8398 10.4401L8.35975 14.7901C8.21175 14.889 8.03775 14.9418 7.85975 14.9418C7.68175 14.9418 7.50775 14.889 7.35975 14.7901C6.11308 14.0501 4.85308 13.3201 3.57975 12.6001C3.42798 12.5321 3.30116 12.4186 3.21693 12.2752C3.13269 12.1318 3.09523 11.9657 3.10975 11.8001C3.10975 10.3468 3.10975 8.89675 3.10975 7.45009C3.09492 7.2895 3.13023 7.12827 3.21082 6.98859C3.29141 6.8489 3.41331 6.73763 3.55975 6.67009C4.80975 6.00009 6.09975 5.21009 7.36975 4.45009C7.50245 4.3598 7.65925 4.31152 7.81975 4.31152C7.98025 4.31152 8.13705 4.3598 8.26975 4.45009C9.54975 5.20009 10.8398 5.95009 12.1298 6.68009C12.2866 6.75269 12.4166 6.87301 12.501 7.02387C12.5854 7.17473 12.62 7.3484 12.5998 7.52009C12.5998 8.02009 12.5998 8.52009 12.5998 9.04009C12.6098 9.12408 12.6017 9.20926 12.5759 9.28985C12.5502 9.37043 12.5074 9.44454 12.4505 9.50713C12.3936 9.56973 12.3239 9.61936 12.2461 9.65265C12.1683 9.68594 12.0843 9.70212 11.9998 9.70009C11.6498 9.70009 11.4297 9.44009 11.4097 9.03009V9.00009C11.4097 8.54009 11.5798 8.00009 11.3498 7.66009C11.1198 7.32009 10.5897 7.17009 10.1997 6.94009C9.48975 6.53009 8.77975 6.13009 8.07975 5.71009C8.01206 5.65898 7.92956 5.63133 7.84475 5.63133C7.75994 5.63133 7.67744 5.65898 7.60975 5.71009C6.60975 6.32009 5.53975 6.93009 4.48975 7.52009C4.41666 7.55636 4.35641 7.61412 4.31708 7.68562C4.27776 7.75712 4.26124 7.83893 4.26975 7.92009C4.26975 9.08009 4.26975 10.2301 4.26975 11.3801C4.25818 11.4757 4.27832 11.5726 4.3271 11.6557C4.37588 11.7388 4.45059 11.8036 4.53975 11.8401C5.53975 12.4101 6.53975 13.0001 7.59975 13.6001C7.67115 13.6514 7.75684 13.6789 7.84475 13.6789C7.93266 13.6789 8.01835 13.6514 8.08975 13.6001L15.6398 9.23009C15.7949 9.12076 15.98 9.06208 16.1698 9.06208C16.3595 9.06208 16.5446 9.12076 16.6998 9.23009C17.9398 9.97009 19.1997 10.6901 20.4597 11.4001C20.6157 11.4747 20.7452 11.5951 20.8309 11.7451C20.9167 11.8952 20.9546 12.0679 20.9398 12.2401C20.9098 12.9301 20.9298 13.6501 20.9298 14.3701Z" fill="white"/>
<defs>
<linearGradient id="paint0_linear_924_164" x1="0" y1="12" x2="24" y2="12" gradientUnits="userSpaceOnUse">
<stop stop-color="#BC83DF"/>
<stop offset="0.14" stop-color="#B481E0"/>
<stop offset="0.36" stop-color="#9D7DE4"/>
<stop offset="0.63" stop-color="#7876EA"/>
<stop offset="0.94" stop-color="#456DF2"/>
<stop offset="1" stop-color="#3B6BF4"/>
</linearGradient>
</defs>
</svg>
