<svg width="24" height="24" viewBox="0 0 24 24" fill="none" xmlns="http://www.w3.org/2000/svg">
<path fill-rule="evenodd" clip-rule="evenodd" d="M7.33962 10.0845L12.001 5.42516L16.6643 10.0883L19.3751 7.37572L12.001 0L4.62695 7.37382L7.33962 10.0845ZM0 12.0004L2.71168 9.28883L5.42335 12.0004L2.71168 14.712L0 12.0004ZM12.0009 18.5767L7.33951 13.9155L4.62305 16.6243L4.62684 16.6281L12.0009 24L19.375 16.6243L19.3769 16.6224L16.6642 13.9136L12.0009 18.5767ZM18.5762 12.0011L21.2878 9.28948L23.9995 12.0011L21.2878 14.7127L18.5762 12.0011ZM12.0024 9.24667L14.753 11.9991H14.7549L14.753 12.001L12.0024 14.7533L9.25184 12.0047L9.24805 11.9991L9.25184 11.9953L9.73333 11.5138L9.96839 11.2806L12.0024 9.24667Z" fill="url(#paint0_linear_583_1424)"/>
<defs>
<linearGradient id="paint0_linear_583_1424" x1="0" y1="12" x2="23.9995" y2="12" gradientUnits="userSpaceOnUse">
<stop stop-color="#BC83DF"/>
<stop offset="1" stop-color="#3B6BF4"/>
</linearGradient>
</defs>
</svg>
