<svg width="120" height="120" viewBox="0 0 120 120" fill="none" xmlns="http://www.w3.org/2000/svg">
<path d="M60 15C35.1465 15 15 35.1465 15 60C15 84.8535 35.1465 105 60 105C84.8535 105 105 84.8535 105 60C105 35.1465 84.8535 15 60 15ZM85.6815 49.6815L54.1815 81.1815C53.304 82.059 52.152 82.5 51 82.5C49.848 82.5 48.696 82.059 47.8185 81.1815L34.3185 67.6815C32.559 65.922 32.559 63.078 34.3185 61.3185C36.078 59.559 38.922 59.559 40.6815 61.3185L51 71.637L79.3185 43.3185C81.078 41.559 83.922 41.559 85.6815 43.3185C87.441 45.078 87.441 47.922 85.6815 49.6815Z" fill="#27AE60"/>
<circle cx="60" cy="60" r="59.5" stroke="#27AE60" stroke-dasharray="6 6"/>
</svg>
