<svg width="14" height="14" viewBox="0 0 14 14" fill="none" xmlns="http://www.w3.org/2000/svg">
<path d="M4.6604 1.7443C4.5444 1.74445 4.43108 1.77917 4.33492 1.84403C4.23875 1.90889 4.1641 2.00094 4.1205 2.10843C4.07691 2.21592 4.06634 2.33397 4.09016 2.4475C4.11398 2.56102 4.17111 2.66487 4.25423 2.74577L8.50847 7L4.25423 11.2542C4.19825 11.308 4.15355 11.3724 4.12276 11.4436C4.09197 11.5148 4.0757 11.5915 4.07491 11.6691C4.07412 11.7467 4.08882 11.8237 4.11816 11.8956C4.14749 11.9674 4.19087 12.0327 4.24575 12.0876C4.30063 12.1425 4.36591 12.1858 4.43776 12.2152C4.50962 12.2445 4.5866 12.2592 4.66421 12.2584C4.74182 12.2576 4.81848 12.2414 4.88973 12.2106C4.96097 12.1798 5.02535 12.1351 5.0791 12.0791L9.74577 7.41243C9.85512 7.30303 9.91656 7.15468 9.91656 7C9.91656 6.84532 9.85512 6.69696 9.74577 6.58756L5.0791 1.9209C5.02467 1.86495 4.95957 1.82049 4.88765 1.79016C4.81573 1.75982 4.73846 1.74423 4.6604 1.7443V1.7443Z" fill="#BDBDBD"/>
</svg>
