<svg width="24" height="24" viewBox="0 0 24 24" fill="none" xmlns="http://www.w3.org/2000/svg">
<g clip-path="url(#clip0_925_176)">
<path fill-rule="evenodd" clip-rule="evenodd" d="M12 0C9.62663 0 7.30655 0.703788 5.33316 2.02236C3.35977 3.34094 1.8217 5.21509 0.913451 7.4078C0.00519943 9.60051 -0.232441 12.0133 0.230582 14.3411C0.693605 16.6689 1.83649 18.8071 3.51472 20.4853C5.19295 22.1635 7.33115 23.3064 9.65892 23.7694C11.9867 24.2324 14.3995 23.9948 16.5922 23.0866C18.7849 22.1783 20.6591 20.6402 21.9776 18.6668C23.2962 16.6935 24 14.3734 24 12C24 8.8174 22.7357 5.76516 20.4853 3.51472C18.2349 1.26428 15.1826 0 12 0V0Z" fill="url(#paint0_linear_925_176)"/>
<path fill-rule="evenodd" clip-rule="evenodd" d="M17.6299 15.58C17.6239 16.2745 17.4598 16.9585 17.1499 17.58C16.8512 18.2041 16.346 18.7057 15.7199 19C15.0733 19.3185 14.3606 19.4795 13.6399 19.47V19.47C13.2103 19.5071 12.7777 19.4582 12.3673 19.3259C11.9569 19.1937 11.577 18.9809 11.2499 18.7C11.0204 18.4853 10.8359 18.227 10.7071 17.9403C10.5784 17.6536 10.5079 17.3442 10.4999 17.03C10.4894 16.838 10.5346 16.647 10.6299 16.48C10.7129 16.3305 10.8381 16.2088 10.9899 16.13C11.161 16.0359 11.3548 15.9909 11.5499 16C11.7448 15.9929 11.938 16.0378 12.1099 16.13C12.2566 16.2121 12.3778 16.3332 12.4599 16.48C12.5552 16.647 12.6003 16.838 12.5899 17.03C12.6017 17.2588 12.5347 17.4847 12.3999 17.67C12.3027 17.8177 12.1633 17.9327 11.9999 18C12.1785 18.2244 12.4295 18.3799 12.7099 18.44C13.0354 18.5317 13.3718 18.5788 13.7099 18.58C14.1464 18.5841 14.5744 18.4589 14.9399 18.22C15.3214 17.961 15.609 17.5857 15.7599 17.15C15.9392 16.6359 16.0271 16.0944 16.0199 15.55C16.0329 14.983 15.9343 14.419 15.7299 13.89C15.5659 13.4773 15.2753 13.1272 14.8999 12.89C14.5413 12.6721 14.1294 12.5579 13.7099 12.56C13.3375 12.5864 12.9771 12.7031 12.6599 12.9L11.8999 13.28V12.9L15.3599 8.37H10.4999V13.07C10.4773 13.4226 10.5684 13.7731 10.7599 14.07C10.8503 14.1951 10.9714 14.2948 11.1115 14.3596C11.2516 14.4244 11.406 14.4521 11.5599 14.44C11.8514 14.4365 12.1346 14.3421 12.3699 14.17C12.6237 13.9828 12.8465 13.7566 13.0299 13.5C13.0481 13.4551 13.0795 13.4167 13.1199 13.39C13.156 13.3807 13.1938 13.3807 13.2299 13.39C13.3145 13.4009 13.3942 13.4355 13.4599 13.49C13.5386 13.5778 13.5815 13.6921 13.5799 13.81C13.5847 13.8899 13.5847 13.9701 13.5799 14.05C13.4073 14.4546 13.1228 14.8015 12.7599 15.05C12.4165 15.2792 12.0127 15.401 11.5999 15.4C10.8327 15.484 10.0627 15.2691 9.44988 14.8C9.24788 14.5793 9.09171 14.3207 8.99043 14.0392C8.88915 13.7576 8.84478 13.4588 8.85988 13.16V8.37H6.37988V7.49H8.81988V5.49L8.25988 5V4.5H9.88988L10.4999 4.81V7.49H16.8199L17.4499 8.11L13.5699 11.93C13.8067 11.8349 14.0559 11.7743 14.3099 11.75C14.8049 11.7699 15.2882 11.907 15.7199 12.15C16.2191 12.3801 16.6423 12.7478 16.9399 13.21C17.2036 13.6011 17.3902 14.0389 17.4899 14.5C17.575 14.854 17.6219 15.216 17.6299 15.58V15.58Z" fill="white"/>
</g>
<defs>
<linearGradient id="paint0_linear_925_176" x1="5.39837e-06" y1="12" x2="24" y2="12" gradientUnits="userSpaceOnUse">
<stop stop-color="#BC83DF"/>
<stop offset="0.14" stop-color="#B481E0"/>
<stop offset="0.36" stop-color="#9D7DE4"/>
<stop offset="0.63" stop-color="#7876EA"/>
<stop offset="0.94" stop-color="#456DF2"/>
<stop offset="1" stop-color="#3B6BF4"/>
</linearGradient>
<clipPath id="clip0_925_176">
<rect width="24" height="24" fill="white"/>
</clipPath>
</defs>
</svg>
