<svg width="24" height="24" viewBox="0 0 24 24" fill="none" xmlns="http://www.w3.org/2000/svg">
<path d="M12 24C18.6274 24 24 18.6274 24 12C24 5.37258 18.6274 0 12 0C5.37258 0 0 5.37258 0 12C0 18.6274 5.37258 24 12 24Z" fill="url(#paint0_linear_925_192)"/>
<path d="M21.2104 10.1299H20.2104C20.001 8.18361 19.0564 6.39074 17.5695 5.11758C16.0826 3.84443 14.1657 3.18709 12.2104 3.27988H6.00039V10.1299H5.15039V11.3799H6.00039V12.6199H5.15039V13.8699H6.00039V20.7199H12.1504C14.0981 20.7819 15.9986 20.1137 17.4788 18.8463C18.9589 17.5788 19.9119 15.8039 20.1504 13.8699H21.2204V12.6199H20.3004C20.3004 12.3699 20.3004 12.1099 20.3004 11.8499C20.3004 11.5899 20.3004 11.5299 20.3004 11.3799H21.2004L21.2104 10.1299ZM7.39039 4.51988H12.0004C13.6247 4.42163 15.2251 4.94773 16.4743 5.99057C17.7235 7.03341 18.527 8.51416 18.7204 10.1299H7.39039V4.51988ZM11.9904 19.5199H7.39039V13.8699H18.7004C18.514 15.4849 17.7153 16.9669 16.4688 18.0106C15.2224 19.0543 13.623 19.5802 12.0004 19.4799L11.9904 19.5199ZM18.8704 11.9699C18.8704 12.1999 18.8704 12.4299 18.8704 12.6599H7.39039V11.3799H18.8604C18.8704 11.5599 18.8704 11.7399 18.8704 11.9299V11.9699Z" fill="white"/>
<defs>
<linearGradient id="paint0_linear_925_192" x1="0" y1="12" x2="24" y2="12" gradientUnits="userSpaceOnUse">
<stop stop-color="#BC83DF"/>
<stop offset="0.14" stop-color="#B481E0"/>
<stop offset="0.36" stop-color="#9D7DE4"/>
<stop offset="0.63" stop-color="#7876EA"/>
<stop offset="0.94" stop-color="#456DF2"/>
<stop offset="1" stop-color="#3B6BF4"/>
</linearGradient>
</defs>
</svg>
