<svg width="24" height="24" viewBox="0 0 24 24" fill="none" xmlns="http://www.w3.org/2000/svg">
<g clip-path="url(#clip0_925_196)">
<path d="M23.0856 16.5878C25.6218 10.4649 22.7142 3.44529 16.5913 0.909083C10.4683 -1.62712 3.44872 1.2805 0.912514 7.40344C-1.62369 13.5264 1.28393 20.546 7.40687 23.0822C13.5298 25.6184 20.5494 22.7108 23.0856 16.5878Z" fill="url(#paint0_linear_925_196)"/>
<path d="M11.9999 3L6.37988 12.17L11.9999 8.9L17.6199 12.17L11.9999 3Z" fill="white"/>
<path d="M11.9999 16.48L6.37988 13.21L11.9999 21L17.6299 13.21L11.9999 16.48Z" fill="white"/>
<path d="M12.0003 9.94995L7.28027 12.69L12.0003 15.43L16.7203 12.69L12.0003 9.94995Z" fill="white"/>
</g>
<defs>
<linearGradient id="paint0_linear_925_196" x1="-0.00374758" y1="11.9992" x2="23.9963" y2="11.9992" gradientUnits="userSpaceOnUse">
<stop stop-color="#BC83DF"/>
<stop offset="0.14" stop-color="#B481E0"/>
<stop offset="0.36" stop-color="#9D7DE4"/>
<stop offset="0.63" stop-color="#7876EA"/>
<stop offset="0.94" stop-color="#456DF2"/>
<stop offset="1" stop-color="#3B6BF4"/>
</linearGradient>
<clipPath id="clip0_925_196">
<rect width="24" height="24" fill="white"/>
</clipPath>
</defs>
</svg>
