<svg width="24" height="24" viewBox="0 0 24 24" fill="none" xmlns="http://www.w3.org/2000/svg">
<path d="M12.0368 0.12995V0.141773C12.0486 0.200886 12.0486 0.271822 12.0486 0.342758V8.8669C12.0368 8.91419 12.0013 8.92601 11.9658 8.94966C11.7176 9.06788 11.4811 9.17429 11.2328 9.28069C10.89 9.43438 10.5353 9.5999 10.1924 9.7536L8.95105 10.3211C8.6082 10.4748 8.26534 10.6285 7.93431 10.7822C7.53234 10.9713 7.11854 11.1487 6.71657 11.3378C6.37371 11.4915 6.03086 11.657 5.67618 11.8107C5.39243 11.9408 5.10869 12.059 4.83677 12.1891C4.81312 12.2009 4.78948 12.2127 4.76583 12.2127C4.75401 12.2127 4.75401 12.2127 4.74219 12.2009L5.0614 11.6689C5.67618 10.6521 6.27913 9.64719 6.89391 8.63044C7.54416 7.54276 8.20623 6.45507 8.85647 5.36739C9.45943 4.36246 10.0742 3.35754 10.6772 2.35261C11.1146 1.61961 11.5639 0.886601 12.0013 0.153596C12.0131 0.12995 12.0249 0.118128 12.0249 0.0944824H12.0368C12.0249 0.106305 12.0368 0.118128 12.0368 0.12995Z" fill="url(#paint0_linear_583_1370)"/>
<path d="M19.2955 12.2009L19.3073 12.2128L17.5693 13.2413L12.1073 16.4689C12.0836 16.4807 12.06 16.4926 12.0482 16.5044C12.0127 16.5044 12.0127 16.4689 12.0127 16.4571V16.3507V9.04429C12.0127 9.00882 12.0127 8.96153 12.0245 8.92607C12.0363 8.87877 12.0718 8.8906 12.1073 8.90242C12.261 8.97336 12.4265 9.04429 12.5802 9.11523C13.0413 9.32804 13.5024 9.54084 13.9634 9.74183C14.3654 9.91917 14.7556 10.1083 15.1575 10.2857C15.5595 10.463 15.9615 10.6522 16.3634 10.8295C16.7063 10.9832 17.061 11.1487 17.4038 11.3024C17.7467 11.4561 18.1014 11.6216 18.4442 11.7753C18.7161 11.8936 18.9881 12.0236 19.26 12.1418C19.26 12.1773 19.2718 12.1891 19.2955 12.2009Z" fill="url(#paint1_linear_583_1370)"/>
<path d="M12.0358 23.8462C12.0358 23.8581 12.024 23.8699 12.024 23.8817H12.0121C12.0121 23.8581 11.9885 23.8462 11.9767 23.8226C11.2437 22.794 10.5107 21.7536 9.77766 20.725C9.03284 19.6728 8.27619 18.6088 7.53136 17.5566C6.81018 16.5398 6.07717 15.5113 5.35599 14.4945C5.16683 14.2226 4.97766 13.9625 4.7885 13.6906C4.77668 13.6669 4.76486 13.6551 4.74121 13.6196C4.77668 13.6196 4.80032 13.6433 4.81215 13.6551C5.84072 14.2581 6.85747 14.861 7.88604 15.464C9.0683 16.1615 10.2387 16.859 11.421 17.5566L12.024 17.9113C12.0476 17.9349 12.0476 17.9585 12.0476 17.9822V23.6807C12.0476 23.7398 12.0476 23.7989 12.0358 23.8462Z" fill="url(#paint2_linear_583_1370)"/>
<path d="M4.72949 12.2246V12.2128C5.10782 12.0473 5.47432 11.8699 5.85264 11.7044C6.33737 11.4798 6.8221 11.267 7.30683 11.0423C7.67333 10.8768 8.05166 10.6995 8.41816 10.534C8.962 10.2857 9.49402 10.0492 10.0379 9.80097C10.4044 9.63545 10.7709 9.46994 11.1492 9.2926C11.4093 9.17437 11.6812 9.05614 11.9413 8.93792C11.965 8.92609 12.0004 8.91427 12.0123 8.89062C12.0241 8.89062 12.0241 8.90245 12.0123 8.91427V16.4217C12.0123 16.4571 12.0004 16.4926 12.0241 16.5162C12.0004 16.5517 11.9768 16.5162 11.965 16.5044C11.8586 16.4453 11.7522 16.3862 11.6457 16.3153C9.36398 14.9675 7.07038 13.6079 4.78861 12.2601C4.77678 12.2483 4.75314 12.2364 4.72949 12.2246Z" fill="url(#paint3_linear_583_1370)"/>
<path d="M19.2707 13.6196H19.2826C19.2826 13.6433 19.2589 13.6669 19.2471 13.6906C17.0717 16.7526 14.8963 19.8265 12.721 22.8886C12.4963 23.2078 12.2599 23.527 12.0353 23.8462C12.0234 23.8344 12.0234 23.8226 12.0234 23.8108V23.7398V18.0058V17.8994C12.52 17.6039 13.0047 17.3201 13.5013 17.0246C15.4165 15.8896 17.3318 14.7664 19.2353 13.6315C19.2471 13.6433 19.2589 13.6315 19.2707 13.6196Z" fill="url(#paint4_linear_583_1370)"/>
<path d="M12.0236 8.91426V8.89061V8.81968V0.236427C12.0236 0.200959 12.0118 0.177314 12.0355 0.141846C14.4355 4.12608 16.8355 8.0985 19.2236 12.0827C19.2473 12.1182 19.2828 12.1655 19.2946 12.2128C19.1291 12.1537 18.9754 12.0709 18.8217 12C18.6325 11.9172 18.4315 11.8226 18.2424 11.7399C18.1241 11.6808 17.9941 11.6335 17.8759 11.5744C17.6749 11.4798 17.4739 11.397 17.2729 11.3024C17.1547 11.2551 17.0365 11.196 16.9182 11.1369L16.1379 10.7822C16.0079 10.7231 15.8778 10.664 15.736 10.6049L15.1685 10.3566C15.0502 10.3093 14.932 10.2502 14.8138 10.1911L14.0335 9.83643C13.9034 9.77731 13.7734 9.7182 13.6315 9.65909L13.064 9.41081C12.934 9.3517 12.8158 9.29259 12.6857 9.23347C12.4611 9.12707 12.2365 9.02066 12 8.92608C12.0355 8.91426 12.0236 8.91426 12.0236 8.91426Z" fill="url(#paint5_linear_583_1370)"/>
<defs>
<linearGradient id="paint0_linear_583_1370" x1="4.74219" y1="6.1536" x2="12.0486" y2="6.1536" gradientUnits="userSpaceOnUse">
<stop stop-color="#BC83DF"/>
<stop offset="1" stop-color="#3B6BF4"/>
</linearGradient>
<linearGradient id="paint1_linear_583_1370" x1="12.0127" y1="12.6981" x2="19.3073" y2="12.6981" gradientUnits="userSpaceOnUse">
<stop stop-color="#BC83DF"/>
<stop offset="1" stop-color="#3B6BF4"/>
</linearGradient>
<linearGradient id="paint2_linear_583_1370" x1="4.74121" y1="18.7507" x2="12.0476" y2="18.7507" gradientUnits="userSpaceOnUse">
<stop stop-color="#BC83DF"/>
<stop offset="1" stop-color="#3B6BF4"/>
</linearGradient>
<linearGradient id="paint3_linear_583_1370" x1="4.72949" y1="12.7111" x2="12.0241" y2="12.7111" gradientUnits="userSpaceOnUse">
<stop stop-color="#BC83DF"/>
<stop offset="1" stop-color="#3B6BF4"/>
</linearGradient>
<linearGradient id="paint4_linear_583_1370" x1="12.0234" y1="18.7329" x2="19.2826" y2="18.7329" gradientUnits="userSpaceOnUse">
<stop stop-color="#BC83DF"/>
<stop offset="1" stop-color="#3B6BF4"/>
</linearGradient>
<linearGradient id="paint5_linear_583_1370" x1="12" y1="6.17731" x2="19.2946" y2="6.17731" gradientUnits="userSpaceOnUse">
<stop stop-color="#BC83DF"/>
<stop offset="1" stop-color="#3B6BF4"/>
</linearGradient>
</defs>
</svg>
