<svg width="136" height="20" viewBox="0 0 136 20" fill="none" xmlns="http://www.w3.org/2000/svg">
<path d="M3.27637 12.4394L9.28127 18.9184C9.59867 19.2614 9.97572 19.5334 10.3908 19.7191C10.8059 19.9047 11.2509 20.0002 11.7004 20.0002C12.1498 20.0002 12.5948 19.9047 13.0099 19.7191C13.425 19.5334 13.802 19.2614 14.1194 18.9184C14.5424 18.463 14.8473 17.8961 15.0037 17.2742C15.1601 16.6522 15.1626 15.997 15.0108 15.3737C14.8591 14.7504 14.5584 14.1809 14.1388 13.7218C13.7192 13.2628 13.1953 12.9303 12.6193 12.7574L4.44086 10.291C4.18688 10.215 3.9167 10.2318 3.67247 10.3386C3.42824 10.4455 3.22369 10.6365 3.09073 10.8818C2.95777 11.127 2.90388 11.4129 2.93746 11.6946C2.97104 11.9764 3.09021 12.2383 3.27637 12.4394Z" fill="#0C092A"/>
<path d="M18.1775 13.246L20.3709 4.88097C20.4871 4.43819 20.5168 3.97633 20.4583 3.52182C20.3997 3.0673 20.2541 2.62904 20.0297 2.23207C19.8054 1.8351 19.5067 1.48722 19.1507 1.20831C18.7947 0.929392 18.3884 0.724915 17.955 0.606564C17.379 0.448889 16.7726 0.448194 16.1962 0.604548C15.6198 0.760902 15.0935 1.06885 14.6698 1.49773C14.2461 1.9266 13.9397 2.46144 13.7811 3.04899C13.6225 3.63653 13.6173 4.25628 13.766 4.84652L15.874 13.2323C15.9395 13.4926 16.0876 13.7235 16.295 13.8889C16.5024 14.0542 16.7575 14.1447 17.0206 14.1463C17.2836 14.1479 17.5398 14.0604 17.7491 13.8976C17.9584 13.7347 18.109 13.5056 18.1775 13.246Z" fill="#0C092A"/>
<path d="M11.5554 0.041525L2.72875 2.32355C1.78735 2.566 0.984416 3.15706 0.495919 3.96718C0.00742136 4.77731 -0.126792 5.74041 0.122694 6.64542C0.289291 7.24228 0.615665 7.78685 1.06936 8.22496C1.52305 8.66307 2.08824 8.97945 2.70873 9.14264C3.32921 9.30583 3.98337 9.31014 4.60612 9.15514C5.22888 9.00013 5.79854 8.69123 6.25844 8.25913L12.7869 2.11397C12.9891 1.92297 13.1197 1.67309 13.1586 1.40329C13.1975 1.13348 13.1423 0.858913 13.0017 0.622362C12.8612 0.385811 12.6431 0.20057 12.3815 0.0955087C12.1199 -0.00955299 11.8294 -0.0285336 11.5554 0.041525Z" fill="#0C092A"/>
<path d="M36.4723 14.9774C33.6157 14.9774 32.164 12.6594 32.164 10.3413C32.164 8.02327 33.6157 5.72863 36.4723 5.72863C37.9475 5.72863 39.0479 6.33741 39.7504 7.22717L43.0987 5.0262C41.6235 3.08278 39.2821 1.86522 36.4723 1.86522C31.6255 1.86522 28.1367 5.49449 28.1367 10.3413C28.1367 15.2116 31.6255 18.8408 36.4723 18.8408C39.2821 18.8408 41.6235 17.6233 43.0987 15.6564L39.7504 13.4555C39.0479 14.3686 37.9475 14.9774 36.4723 14.9774Z" fill="#0C092A"/>
<path d="M50.4146 6.38424C46.7151 6.38424 44.0459 9.07693 44.0459 12.6125C44.0459 16.1247 46.7151 18.8408 50.4146 18.8408C54.1376 18.8408 56.7834 16.1247 56.7834 12.6125C56.7834 9.07693 54.1376 6.38424 50.4146 6.38424ZM50.4146 15.1413C48.8927 15.1413 47.8859 13.994 47.8859 12.6125C47.8859 11.2311 48.8927 10.0603 50.4146 10.0603C51.96 10.0603 52.9668 11.2311 52.9668 12.6125C52.9668 13.994 51.96 15.1413 50.4146 15.1413Z" fill="#0C092A"/>
<path d="M58.6507 18.5364H62.4439V6.66522H58.6507V18.5364ZM60.5473 5.354C61.6478 5.354 62.5376 4.44083 62.5376 3.34034C62.5376 2.23985 61.6478 1.3501 60.5473 1.3501C59.4468 1.3501 58.5571 2.23985 58.5571 3.34034C58.5571 4.44083 59.4468 5.354 60.5473 5.354Z" fill="#0C092A"/>
<path d="M72.0781 6.38424C70.5328 6.38424 69.5025 6.99302 68.8235 7.76571V6.66522H65.0303V18.5364H68.8235V12.1442C68.8235 10.833 69.6196 10.1072 70.7201 10.1072C71.7737 10.1072 72.6167 10.7862 72.6167 12.1442V18.5364H76.4332V11.114C76.4332 8.72571 75.0284 6.38424 72.0781 6.38424Z" fill="#0C092A"/>
<path d="M85.4872 9.45156C83.4033 8.98327 81.4131 8.65546 81.4131 6.57156C81.4131 5.00278 82.6775 4.04278 84.2462 4.04278C85.9789 4.04278 86.8218 4.97937 87.1496 5.96278L89.4443 5.40083C88.7653 3.12961 86.8218 1.86522 84.4804 1.86522C81.4365 1.86522 79.0716 3.80863 79.0716 6.57156C79.0716 8.70229 79.8209 10.435 83.1223 11.2311C85.7214 11.8633 87.7116 11.9569 87.7116 14.1813C87.7116 15.8672 86.1428 16.6399 84.3633 16.6399C82.1857 16.6399 80.9682 15.4925 80.734 14.4155L78.416 15.1413C79.2121 17.7169 81.8111 18.8408 84.3165 18.8408C88.5311 18.8408 90.0999 16.2886 90.0999 13.994C90.0999 11.3481 88.6716 10.2008 85.4872 9.45156Z" fill="#0C092A"/>
<path d="M97.9866 8.70229V6.66522H95.2471V4.18327H93.1164V6.66522H91.2666V8.70229H93.1164V14.673C93.1164 17.272 94.2637 18.6535 96.8393 18.6535C97.3076 18.6535 97.6822 18.6067 97.9866 18.5364V16.6633C97.729 16.6867 97.4715 16.7101 97.1203 16.7101C95.2705 16.7101 95.2471 15.5862 95.2471 13.9003V8.70229H97.9866Z" fill="#0C092A"/>
<path d="M105.671 6.38424C103.798 6.38424 101.995 7.03985 100.684 8.234L102.182 9.38132C102.697 8.95985 104.009 8.32766 105.25 8.32766C107.708 8.32766 108.083 9.73254 108.083 11.5355C107.778 11.5355 106.771 11.5355 106.163 11.5355C104.5 11.5355 99.9812 11.6291 99.9812 15.352C99.9812 17.4828 101.948 18.8408 104.196 18.8408C106.069 18.8408 107.544 17.8106 108.083 16.8974V18.5364H110.213V11.3716C110.213 8.53839 109.09 6.38424 105.671 6.38424ZM108.083 15.1413C107.942 15.6799 106.701 17.1081 104.664 17.1081C102.768 17.1081 102.182 16.1716 102.182 15.2584C102.182 13.1745 105.062 13.1979 107.263 13.1979C107.404 13.1979 108.012 13.1979 108.083 13.1979V15.1413Z" fill="#0C092A"/>
<path d="M118.786 16.8038C116.444 16.8038 114.735 15.0242 114.735 12.6125C114.735 10.1774 116.444 8.3979 118.786 8.3979C120.284 8.3979 121.525 9.14717 122.228 10.3179L124.054 9.31107C122.977 7.57839 121.104 6.38424 118.786 6.38424C115.203 6.38424 112.557 9.194 112.557 12.6125C112.557 16.0311 115.203 18.8408 118.786 18.8408C121.104 18.8408 122.977 17.6467 124.054 15.8906L122.228 14.9072C121.525 16.0779 120.284 16.8038 118.786 16.8038Z" fill="#0C092A"/>
<path d="M130.467 12.2145L135.08 6.66522H132.481L128.173 11.9569V2.14619H126.042V18.5364H128.173V12.8467L133.019 18.5364H135.806L130.467 12.2145Z" fill="#0C092A"/>
</svg>
