<svg width="24" height="24" viewBox="0 0 24 24" fill="none" xmlns="http://www.w3.org/2000/svg">
<g clip-path="url(#clip0_924_168)">
<path fill-rule="evenodd" clip-rule="evenodd" d="M24 12C24 14.3734 23.2962 16.6935 21.9776 18.6668C20.6591 20.6402 18.7849 22.1783 16.5922 23.0866C14.3995 23.9948 11.9867 24.2324 9.65892 23.7694C7.33115 23.3064 5.19295 22.1635 3.51472 20.4853C1.83649 18.8071 0.693605 16.6689 0.230582 14.3411C-0.232441 12.0133 0.00519943 9.60051 0.913451 7.4078C1.8217 5.21509 3.35977 3.34094 5.33316 2.02236C7.30655 0.703788 9.62663 0 12 0C15.1826 0 18.2349 1.26428 20.4853 3.51472C22.7357 5.76516 24 8.8174 24 12Z" fill="url(#paint0_linear_924_168)"/>
<path fill-rule="evenodd" clip-rule="evenodd" d="M20.3799 9.48003C20.4009 9.44983 20.4158 9.41579 20.4237 9.37984C20.4316 9.34389 20.4323 9.30674 20.4258 9.27052C20.4193 9.2343 20.4057 9.19971 20.3858 9.16875C20.3659 9.13778 20.3401 9.11103 20.3099 9.09003L17.7899 7.35003H17.6899L5.46991 4.49003C5.42038 4.47766 5.36841 4.47907 5.31962 4.4941C5.27084 4.50914 5.22709 4.53722 5.19311 4.57532C5.15913 4.61342 5.13621 4.66008 5.12683 4.71026C5.11746 4.76044 5.12198 4.81223 5.13991 4.86003L11.3699 21.6C11.3863 21.6456 11.4143 21.6862 11.4511 21.7178C11.4879 21.7493 11.5323 21.7708 11.5799 21.78V21.78C11.6284 21.779 11.6757 21.7644 11.7163 21.7379C11.757 21.7114 11.7894 21.674 11.8099 21.63V21.63L20.1999 9.63003L20.3799 9.48003ZM12.4999 12.63L6.39991 5.63003L16.7799 8.00003L12.4999 12.63ZM12.7299 13.18L19.0599 10.24L11.9999 20.32L12.7299 13.18ZM19.2199 9.61003L13.5599 12.23L17.2499 8.23003L19.2199 9.61003ZM6.13991 6.11003L12.2299 13.11L11.4799 20.49L6.13991 6.11003Z" fill="white"/>
</g>
<defs>
<linearGradient id="paint0_linear_924_168" x1="5.39837e-06" y1="12" x2="24" y2="12" gradientUnits="userSpaceOnUse">
<stop stop-color="#BC83DF"/>
<stop offset="0.14" stop-color="#B481E0"/>
<stop offset="0.36" stop-color="#9D7DE4"/>
<stop offset="0.63" stop-color="#7876EA"/>
<stop offset="0.94" stop-color="#456DF2"/>
<stop offset="1" stop-color="#3B6BF4"/>
</linearGradient>
<clipPath id="clip0_924_168">
<rect width="24" height="24" fill="white"/>
</clipPath>
</defs>
</svg>
