<svg width="24" height="24" viewBox="0 0 24 24" fill="none" xmlns="http://www.w3.org/2000/svg">
<g clip-path="url(#clip0_925_211)">
<path d="M12 24C14.3734 24 16.6935 23.2962 18.6668 21.9776C20.6402 20.6591 22.1783 18.7849 23.0866 16.5922C23.9948 14.3995 24.2324 11.9867 23.7694 9.65892C23.3064 7.33115 22.1635 5.19295 20.4853 3.51472C18.8071 1.83649 16.6689 0.693605 14.3411 0.230582C12.0133 -0.232441 9.60051 0.00519943 7.4078 0.913451C5.21509 1.8217 3.34094 3.35977 2.02236 5.33316C0.703788 7.30655 0 9.62663 0 12C0 15.1826 1.26428 18.2349 3.51472 20.4853C5.76516 22.7357 8.8174 24 12 24Z" fill="url(#paint0_linear_925_211)"/>
<path d="M15.3496 13.9001C15.3496 12.1501 14.3496 11.5501 12.1996 11.3001C10.6996 11.1001 10.3996 10.7001 10.3996 10.0001C10.3996 9.3001 10.8996 8.8501 11.8996 8.8501C12.2552 8.7945 12.619 8.87045 12.9227 9.06372C13.2264 9.257 13.4493 9.55435 13.5496 9.9001C13.5758 9.97225 13.6233 10.0348 13.6858 10.0794C13.7483 10.124 13.8228 10.1487 13.8996 10.1501H14.6996C14.7459 10.1515 14.792 10.1434 14.8351 10.1263C14.8782 10.1092 14.9174 10.0834 14.9501 10.0507C14.9829 10.0179 15.0086 9.97875 15.0257 9.93566C15.0428 9.89257 15.051 9.84644 15.0496 9.8001V9.7501C14.9427 9.21756 14.6653 8.73432 14.2593 8.37347C13.8534 8.01262 13.341 7.7938 12.7996 7.7501V6.5001C12.7996 6.3001 12.6496 6.1501 12.3996 6.1001H11.6496C11.4496 6.1001 11.2996 6.2501 11.2496 6.5001V7.6501C10.6077 7.67481 9.99877 7.94087 9.54456 8.39509C9.09034 8.8493 8.82428 9.45821 8.79957 10.1001C8.79957 11.7501 9.79957 12.4001 11.8996 12.6501C13.2996 12.9001 13.7496 13.2001 13.7496 14.0001C13.7496 14.8001 13.0496 15.3501 12.0996 15.3501C10.7996 15.3501 10.3496 14.8001 10.1996 14.0501C10.1838 13.9679 10.1406 13.8934 10.077 13.8389C10.0134 13.7844 9.93324 13.7531 9.84957 13.7501H8.99957C8.95323 13.7487 8.9071 13.7568 8.86401 13.7739C8.82092 13.791 8.78178 13.8167 8.749 13.8495C8.71622 13.8823 8.69049 13.9214 8.67339 13.9645C8.65629 14.0076 8.64818 14.0538 8.64957 14.1001V14.1501C8.74036 14.7971 9.05535 15.3918 9.53963 15.8303C10.0239 16.2689 10.6467 16.5237 11.2996 16.5501V17.7501C11.2996 17.9501 11.4496 18.1001 11.6996 18.1501H12.4496C12.6496 18.1501 12.7996 18.0001 12.8496 17.7501V16.5501C13.5186 16.4916 14.1429 16.1893 14.6038 15.7008C15.0647 15.2122 15.3301 14.5714 15.3496 13.9001V13.9001Z" fill="white"/>
<path d="M9.45038 19.1501C8.02713 18.614 6.80109 17.6569 5.93571 16.4063C5.07034 15.1556 4.60674 13.6709 4.60674 12.1501C4.60674 10.6292 5.07034 9.14451 5.93571 7.89387C6.80109 6.64323 8.02713 5.6861 9.45038 5.15007C9.5464 5.10858 9.627 5.03802 9.68081 4.94833C9.73463 4.85863 9.75896 4.75432 9.75038 4.65007V3.90007C9.75723 3.80838 9.7306 3.71733 9.67544 3.64378C9.62027 3.57023 9.54032 3.51917 9.45038 3.50007C9.38568 3.47719 9.31509 3.47719 9.25038 3.50007C7.43129 4.07985 5.8437 5.22311 4.71714 6.76457C3.59057 8.30603 2.9834 10.1658 2.9834 12.0751C2.9834 13.9843 3.59057 15.8441 4.71714 17.3856C5.8437 18.927 7.43129 20.0703 9.25038 20.6501C9.29176 20.6751 9.33858 20.6898 9.38685 20.6929C9.43512 20.6959 9.48342 20.6872 9.52762 20.6676C9.57182 20.6479 9.61061 20.6179 9.64069 20.58C9.67078 20.5422 9.69125 20.4976 9.70038 20.4501C9.75038 20.4001 9.75038 20.3501 9.75038 20.2501V19.5501C9.70574 19.383 9.59825 19.2397 9.45038 19.1501V19.1501ZM14.7504 3.55007C14.709 3.52501 14.6622 3.51034 14.6139 3.50728C14.5656 3.50423 14.5173 3.5129 14.4731 3.53254C14.4289 3.55219 14.3902 3.58223 14.3601 3.6201C14.33 3.65798 14.3095 3.70257 14.3004 3.75007C14.2504 3.75007 14.2504 3.85007 14.2504 3.95007V4.65007C14.2588 4.75082 14.2902 4.8483 14.3422 4.93499C14.3942 5.02169 14.4654 5.09527 14.5504 5.15007C15.9902 5.67661 17.2335 6.63287 18.1119 7.88938C18.9903 9.14589 19.4614 10.642 19.4614 12.1751C19.4614 13.7082 18.9903 15.2042 18.1119 16.4608C17.2335 17.7173 15.9902 18.6735 14.5504 19.2001C14.4544 19.2416 14.3738 19.3121 14.32 19.4018C14.2661 19.4915 14.2418 19.5958 14.2504 19.7001V20.4001C14.2435 20.4918 14.2702 20.5828 14.3253 20.6564C14.3805 20.7299 14.4604 20.781 14.5504 20.8001C14.6209 20.8075 14.6917 20.7898 14.7504 20.7501C16.5884 20.183 18.1964 19.0419 19.3386 17.4942C20.4808 15.9465 21.0971 14.0736 21.0971 12.1501C21.0971 10.2265 20.4808 8.3536 19.3386 6.8059C18.1964 5.25819 16.5884 4.11715 14.7504 3.55007V3.55007Z" fill="white"/>
</g>
<defs>
<linearGradient id="paint0_linear_925_211" x1="0" y1="12" x2="24" y2="12" gradientUnits="userSpaceOnUse">
<stop stop-color="#BC83DF"/>
<stop offset="0.14" stop-color="#B481E0"/>
<stop offset="0.36" stop-color="#9D7DE4"/>
<stop offset="0.63" stop-color="#7876EA"/>
<stop offset="0.94" stop-color="#456DF2"/>
<stop offset="1" stop-color="#3B6BF4"/>
</linearGradient>
<clipPath id="clip0_925_211">
<rect width="24" height="24" fill="white"/>
</clipPath>
</defs>
</svg>
