<svg width="24" height="24" viewBox="0 0 24 24" fill="none" xmlns="http://www.w3.org/2000/svg">
<path d="M12 24C18.6274 24 24 18.6274 24 12C24 5.37258 18.6274 0 12 0C5.37258 0 0 5.37258 0 12C0 18.6274 5.37258 24 12 24Z" fill="url(#paint0_linear_925_215)"/>
<path d="M18.5596 6.29008L16.3596 7.41008L5.72961 12.8301C5.68973 12.5552 5.66968 12.2778 5.66961 12.0001C5.66943 10.8952 5.95845 9.80949 6.50795 8.85093C7.05745 7.89236 7.84829 7.09433 8.80183 6.53616C9.75536 5.97799 10.8384 5.67913 11.9432 5.66929C13.0481 5.65945 14.1363 5.93898 15.0996 6.48008L16.3596 5.83008L16.5496 5.74008C15.3949 4.90099 14.0307 4.39755 12.6077 4.2854C11.1848 4.17326 9.75852 4.45678 8.48664 5.10462C7.21476 5.75246 6.1468 6.73939 5.40081 7.9563C4.65482 9.17322 4.25987 10.5727 4.25961 12.0001C4.25961 12.2001 4.25961 12.4001 4.25961 12.5901C4.29412 12.8725 4.2418 13.1586 4.1096 13.4105C3.9774 13.6624 3.7716 13.8681 3.51961 14.0001L2.84961 14.3401V15.9201L4.84961 14.9201L5.47961 14.6001L6.10961 14.2801L17.2796 8.52008L18.5396 7.88008L21.1496 6.55008V5.00008L18.5596 6.29008Z" fill="white"/>
<path d="M21.1496 8.13013L6.70961 15.4801L5.44961 16.1301L2.84961 17.4501V19.0001L5.42961 17.6901L7.62961 16.5601L18.2796 11.1401C18.2945 11.4166 18.2945 11.6937 18.2796 11.9701C18.2802 13.0704 17.994 14.1517 17.4492 15.1076C16.9044 16.0635 16.1199 16.8609 15.173 17.4212C14.2261 17.9815 13.1495 18.2852 12.0494 18.3026C10.9493 18.3199 9.8637 18.0503 8.89961 17.5201L8.81961 17.5701L7.44961 18.2601C8.6043 19.0992 9.96853 19.6027 11.3915 19.7148C12.8144 19.8269 14.2407 19.5434 15.5126 18.8956C16.7845 18.2477 17.8524 17.2608 18.5984 16.0439C19.3444 14.827 19.7394 13.4275 19.7396 12.0001C19.7396 11.8001 19.7396 11.6001 19.7396 11.4101C19.716 11.1335 19.7757 10.856 19.9112 10.6136C20.0466 10.3712 20.2516 10.175 20.4996 10.0501L21.1696 9.71013L21.1496 8.13013Z" fill="white"/>
<defs>
<linearGradient id="paint0_linear_925_215" x1="0" y1="12" x2="24" y2="12" gradientUnits="userSpaceOnUse">
<stop stop-color="#BC83DF"/>
<stop offset="0.14" stop-color="#B481E0"/>
<stop offset="0.36" stop-color="#9D7DE4"/>
<stop offset="0.63" stop-color="#7876EA"/>
<stop offset="0.94" stop-color="#456DF2"/>
<stop offset="1" stop-color="#3B6BF4"/>
</linearGradient>
</defs>
</svg>
