<svg width="24" height="24" viewBox="0 0 24 24" fill="none" xmlns="http://www.w3.org/2000/svg">
<g clip-path="url(#clip0_925_180)">
<path d="M12 24C18.6274 24 24 18.6274 24 12C24 5.37258 18.6274 0 12 0C5.37258 0 0 5.37258 0 12C0 18.6274 5.37258 24 12 24Z" fill="white"/>
<path d="M11.9998 2.41829e-06C13.905 -0.00120701 15.7831 0.45124 17.4788 1.31991C19.1744 2.18859 20.6389 3.44852 21.751 4.99548C22.8631 6.54244 23.5908 8.33196 23.8741 10.216C24.1573 12.1 23.9879 14.0244 23.3798 15.83H19.7998V5.73L11.9998 13.55L4.19981 5.73V15.83H0.619807C0.0117269 14.0244 -0.1577 12.1 0.125541 10.216C0.408783 8.33196 1.13655 6.54244 2.24864 4.99548C3.36073 3.44852 4.82518 2.18859 6.52083 1.31991C8.21648 0.45124 10.0946 -0.00120701 11.9998 2.41829e-06V2.41829e-06ZM10.2098 15.3L11.9998 17.1L13.7898 15.31L17.1698 11.89V18.24H22.1698C21.0979 19.9944 19.5933 21.4439 17.8002 22.4497C16.0071 23.4554 13.9857 23.9836 11.9298 23.9836C9.87391 23.9836 7.85249 23.4554 6.0594 22.4497C4.26631 21.4439 2.76168 19.9944 1.68981 18.24H6.68981V11.89L10.0998 15.31L10.2098 15.3Z" fill="url(#paint0_linear_925_180)"/>
<path fill-rule="evenodd" clip-rule="evenodd" d="M11.9998 2.41829e-06C13.905 -0.00120701 15.7831 0.45124 17.4788 1.31991C19.1744 2.18859 20.6389 3.44852 21.751 4.99548C22.8631 6.54244 23.5908 8.33196 23.8741 10.216C24.1573 12.1 23.9879 14.0244 23.3798 15.83H19.7998V5.73L11.9998 13.55L4.19981 5.73V15.83H0.619807C0.0117269 14.0244 -0.1577 12.1 0.125541 10.216C0.408783 8.33196 1.13655 6.54244 2.24864 4.99548C3.36073 3.44852 4.82518 2.18859 6.52083 1.31991C8.21648 0.45124 10.0946 -0.00120701 11.9998 2.41829e-06V2.41829e-06ZM10.2098 15.3L11.9998 17.1L13.7898 15.31L17.1698 11.89V18.24H22.1698C21.0979 19.9944 19.5933 21.4439 17.8002 22.4497C16.0071 23.4554 13.9857 23.9836 11.9298 23.9836C9.87391 23.9836 7.85249 23.4554 6.0594 22.4497C4.26631 21.4439 2.76168 19.9944 1.68981 18.24H6.68981V11.89L10.0998 15.31L10.2098 15.3Z" fill="url(#paint1_linear_925_180)"/>
</g>
<defs>
<linearGradient id="paint0_linear_925_180" x1="-0.000193198" y1="12" x2="23.9998" y2="12" gradientUnits="userSpaceOnUse">
<stop stop-color="#BC83DF"/>
<stop offset="0.14" stop-color="#B481E0"/>
<stop offset="0.36" stop-color="#9D7DE4"/>
<stop offset="0.63" stop-color="#7876EA"/>
<stop offset="0.94" stop-color="#456DF2"/>
<stop offset="1" stop-color="#3B6BF4"/>
</linearGradient>
<linearGradient id="paint1_linear_925_180" x1="-0.000193198" y1="12" x2="23.9998" y2="12" gradientUnits="userSpaceOnUse">
<stop stop-color="#BC83DF"/>
<stop offset="0.14" stop-color="#B481E0"/>
<stop offset="0.36" stop-color="#9D7DE4"/>
<stop offset="0.63" stop-color="#7876EA"/>
<stop offset="0.94" stop-color="#456DF2"/>
<stop offset="1" stop-color="#3B6BF4"/>
</linearGradient>
<clipPath id="clip0_925_180">
<rect width="24" height="24" fill="white"/>
</clipPath>
</defs>
</svg>
