<svg width="24" height="24" viewBox="0 0 24 24" fill="none" xmlns="http://www.w3.org/2000/svg">
<path d="M20.4843 2H23.953L16.7343 9.1475C14.12 11.7345 9.8816 11.7345 7.26551 9.1475L0.0439453 2H3.51551L8.99988 7.42953C9.79895 8.21708 10.8758 8.65857 11.9978 8.65857C13.1197 8.65857 14.1966 8.21708 14.9957 7.42953L20.4843 2Z" fill="url(#paint0_linear_583_1404)"/>
<path d="M3.47109 21.875H0L7.26562 14.6834C9.87984 12.0964 14.1183 12.0964 16.7344 14.6834L24 21.875H20.5312L15 16.4014C14.2009 15.6139 13.124 15.1724 12.0021 15.1724C10.8802 15.1724 9.80329 15.6139 9.00422 16.4014L3.47109 21.875Z" fill="url(#paint1_linear_583_1404)"/>
<defs>
<linearGradient id="paint0_linear_583_1404" x1="0.0439453" y1="6.54389" x2="23.953" y2="6.54389" gradientUnits="userSpaceOnUse">
<stop stop-color="#BC83DF"/>
<stop offset="1" stop-color="#3B6BF4"/>
</linearGradient>
<linearGradient id="paint1_linear_583_1404" x1="0" y1="17.3091" x2="24" y2="17.3091" gradientUnits="userSpaceOnUse">
<stop stop-color="#BC83DF"/>
<stop offset="1" stop-color="#3B6BF4"/>
</linearGradient>
</defs>
</svg>
